<?xml version="1.0" encoding="utf-8"?>
<svg xmlns="http://www.w3.org/2000/svg" xmlns:xlink="http://www.w3.org/1999/xlink" width="600" height="400" viewBox="0 0 2400 1600">
<defs>
  <clipPath id="clip370">
    <rect x="0" y="0" width="2400" height="1600"/>
  </clipPath>
</defs>
<path clip-path="url(#clip370)" d="M0 1600 L2400 1600 L2400 0 L0 0  Z" fill="#ffffff" fill-rule="evenodd" fill-opacity="1"/>
<defs>
  <clipPath id="clip371">
    <rect x="480" y="0" width="1681" height="1600"/>
  </clipPath>
</defs>
<path clip-path="url(#clip370)" d="M257.204 1423.18 L2352.76 1423.18 L2352.76 123.472 L257.204 123.472  Z" fill="#ffffff" fill-rule="evenodd" fill-opacity="1"/>
<defs>
  <clipPath id="clip372">
    <rect x="257" y="123" width="2097" height="1301"/>
  </clipPath>
</defs>
<polyline clip-path="url(#clip372)" style="stroke:#000000; stroke-linecap:round; stroke-linejoin:round; stroke-width:2; stroke-opacity:0.1; fill:none" points="316.512,1423.18 316.512,123.472 "/>
<polyline clip-path="url(#clip372)" style="stroke:#000000; stroke-linecap:round; stroke-linejoin:round; stroke-width:2; stroke-opacity:0.1; fill:none" points="712.692,1423.18 712.692,123.472 "/>
<polyline clip-path="url(#clip372)" style="stroke:#000000; stroke-linecap:round; stroke-linejoin:round; stroke-width:2; stroke-opacity:0.1; fill:none" points="1108.87,1423.18 1108.87,123.472 "/>
<polyline clip-path="url(#clip372)" style="stroke:#000000; stroke-linecap:round; stroke-linejoin:round; stroke-width:2; stroke-opacity:0.1; fill:none" points="1505.05,1423.18 1505.05,123.472 "/>
<polyline clip-path="url(#clip372)" style="stroke:#000000; stroke-linecap:round; stroke-linejoin:round; stroke-width:2; stroke-opacity:0.1; fill:none" points="1901.23,1423.18 1901.23,123.472 "/>
<polyline clip-path="url(#clip372)" style="stroke:#000000; stroke-linecap:round; stroke-linejoin:round; stroke-width:2; stroke-opacity:0.1; fill:none" points="2297.41,1423.18 2297.41,123.472 "/>
<polyline clip-path="url(#clip372)" style="stroke:#000000; stroke-linecap:round; stroke-linejoin:round; stroke-width:2; stroke-opacity:0.1; fill:none" points="257.204,1304.13 2352.76,1304.13 "/>
<polyline clip-path="url(#clip372)" style="stroke:#000000; stroke-linecap:round; stroke-linejoin:round; stroke-width:2; stroke-opacity:0.1; fill:none" points="257.204,1051.09 2352.76,1051.09 "/>
<polyline clip-path="url(#clip372)" style="stroke:#000000; stroke-linecap:round; stroke-linejoin:round; stroke-width:2; stroke-opacity:0.1; fill:none" points="257.204,798.056 2352.76,798.056 "/>
<polyline clip-path="url(#clip372)" style="stroke:#000000; stroke-linecap:round; stroke-linejoin:round; stroke-width:2; stroke-opacity:0.1; fill:none" points="257.204,545.019 2352.76,545.019 "/>
<polyline clip-path="url(#clip372)" style="stroke:#000000; stroke-linecap:round; stroke-linejoin:round; stroke-width:2; stroke-opacity:0.1; fill:none" points="257.204,291.982 2352.76,291.982 "/>
<polyline clip-path="url(#clip370)" style="stroke:#000000; stroke-linecap:round; stroke-linejoin:round; stroke-width:4; stroke-opacity:1; fill:none" points="257.204,1423.18 2352.76,1423.18 "/>
<polyline clip-path="url(#clip370)" style="stroke:#000000; stroke-linecap:round; stroke-linejoin:round; stroke-width:4; stroke-opacity:1; fill:none" points="316.512,1423.18 316.512,1404.28 "/>
<polyline clip-path="url(#clip370)" style="stroke:#000000; stroke-linecap:round; stroke-linejoin:round; stroke-width:4; stroke-opacity:1; fill:none" points="712.692,1423.18 712.692,1404.28 "/>
<polyline clip-path="url(#clip370)" style="stroke:#000000; stroke-linecap:round; stroke-linejoin:round; stroke-width:4; stroke-opacity:1; fill:none" points="1108.87,1423.18 1108.87,1404.28 "/>
<polyline clip-path="url(#clip370)" style="stroke:#000000; stroke-linecap:round; stroke-linejoin:round; stroke-width:4; stroke-opacity:1; fill:none" points="1505.05,1423.18 1505.05,1404.28 "/>
<polyline clip-path="url(#clip370)" style="stroke:#000000; stroke-linecap:round; stroke-linejoin:round; stroke-width:4; stroke-opacity:1; fill:none" points="1901.23,1423.18 1901.23,1404.28 "/>
<polyline clip-path="url(#clip370)" style="stroke:#000000; stroke-linecap:round; stroke-linejoin:round; stroke-width:4; stroke-opacity:1; fill:none" points="2297.41,1423.18 2297.41,1404.28 "/>
<path clip-path="url(#clip370)" d="M316.512 1454.1 Q312.901 1454.1 311.072 1457.66 Q309.267 1461.2 309.267 1468.33 Q309.267 1475.44 311.072 1479.01 Q312.901 1482.55 316.512 1482.55 Q320.146 1482.55 321.952 1479.01 Q323.781 1475.44 323.781 1468.33 Q323.781 1461.2 321.952 1457.66 Q320.146 1454.1 316.512 1454.1 M316.512 1450.39 Q322.322 1450.39 325.378 1455 Q328.456 1459.58 328.456 1468.33 Q328.456 1477.06 325.378 1481.67 Q322.322 1486.25 316.512 1486.25 Q310.702 1486.25 307.623 1481.67 Q304.568 1477.06 304.568 1468.33 Q304.568 1459.58 307.623 1455 Q310.702 1450.39 316.512 1450.39 Z" fill="#000000" fill-rule="nonzero" fill-opacity="1" /><path clip-path="url(#clip370)" d="M703.074 1481.64 L710.712 1481.64 L710.712 1455.28 L702.402 1456.95 L702.402 1452.69 L710.666 1451.02 L715.342 1451.02 L715.342 1481.64 L722.981 1481.64 L722.981 1485.58 L703.074 1485.58 L703.074 1481.64 Z" fill="#000000" fill-rule="nonzero" fill-opacity="1" /><path clip-path="url(#clip370)" d="M1103.52 1481.64 L1119.84 1481.64 L1119.84 1485.58 L1097.9 1485.58 L1097.9 1481.64 Q1100.56 1478.89 1105.14 1474.26 Q1109.75 1469.61 1110.93 1468.27 Q1113.18 1465.74 1114.06 1464.01 Q1114.96 1462.25 1114.96 1460.56 Q1114.96 1457.8 1113.01 1456.07 Q1111.09 1454.33 1107.99 1454.33 Q1105.79 1454.33 1103.34 1455.09 Q1100.91 1455.86 1098.13 1457.41 L1098.13 1452.69 Q1100.95 1451.55 1103.41 1450.97 Q1105.86 1450.39 1107.9 1450.39 Q1113.27 1450.39 1116.46 1453.08 Q1119.66 1455.77 1119.66 1460.26 Q1119.66 1462.39 1118.85 1464.31 Q1118.06 1466.2 1115.95 1468.8 Q1115.38 1469.47 1112.27 1472.69 Q1109.17 1475.88 1103.52 1481.64 Z" fill="#000000" fill-rule="nonzero" fill-opacity="1" /><path clip-path="url(#clip370)" d="M1509.3 1466.95 Q1512.65 1467.66 1514.53 1469.93 Q1516.43 1472.2 1516.43 1475.53 Q1516.43 1480.65 1512.91 1483.45 Q1509.39 1486.25 1502.91 1486.25 Q1500.73 1486.25 1498.42 1485.81 Q1496.13 1485.39 1493.67 1484.54 L1493.67 1480.02 Q1495.62 1481.16 1497.93 1481.74 Q1500.25 1482.32 1502.77 1482.32 Q1507.17 1482.32 1509.46 1480.58 Q1511.78 1478.84 1511.78 1475.53 Q1511.78 1472.48 1509.62 1470.77 Q1507.49 1469.03 1503.67 1469.03 L1499.65 1469.03 L1499.65 1465.19 L1503.86 1465.19 Q1507.31 1465.19 1509.14 1463.82 Q1510.96 1462.43 1510.96 1459.84 Q1510.96 1457.18 1509.07 1455.77 Q1507.19 1454.33 1503.67 1454.33 Q1501.75 1454.33 1499.55 1454.75 Q1497.35 1455.16 1494.72 1456.04 L1494.72 1451.88 Q1497.38 1451.14 1499.69 1450.77 Q1502.03 1450.39 1504.09 1450.39 Q1509.41 1450.39 1512.52 1452.83 Q1515.62 1455.23 1515.62 1459.35 Q1515.62 1462.22 1513.97 1464.21 Q1512.33 1466.18 1509.3 1466.95 Z" fill="#000000" fill-rule="nonzero" fill-opacity="1" /><path clip-path="url(#clip370)" d="M1904.24 1455.09 L1892.43 1473.54 L1904.24 1473.54 L1904.24 1455.09 M1903.01 1451.02 L1908.89 1451.02 L1908.89 1473.54 L1913.82 1473.54 L1913.82 1477.43 L1908.89 1477.43 L1908.89 1485.58 L1904.24 1485.58 L1904.24 1477.43 L1888.64 1477.43 L1888.64 1472.92 L1903.01 1451.02 Z" fill="#000000" fill-rule="nonzero" fill-opacity="1" /><path clip-path="url(#clip370)" d="M2287.69 1451.02 L2306.04 1451.02 L2306.04 1454.96 L2291.97 1454.96 L2291.97 1463.43 Q2292.99 1463.08 2294.01 1462.92 Q2295.03 1462.73 2296.04 1462.73 Q2301.83 1462.73 2305.21 1465.9 Q2308.59 1469.08 2308.59 1474.49 Q2308.59 1480.07 2305.12 1483.17 Q2301.65 1486.25 2295.33 1486.25 Q2293.15 1486.25 2290.88 1485.88 Q2288.64 1485.51 2286.23 1484.77 L2286.23 1480.07 Q2288.31 1481.2 2290.53 1481.76 Q2292.76 1482.32 2295.23 1482.32 Q2299.24 1482.32 2301.58 1480.21 Q2303.91 1478.1 2303.91 1474.49 Q2303.91 1470.88 2301.58 1468.77 Q2299.24 1466.67 2295.23 1466.67 Q2293.36 1466.67 2291.48 1467.08 Q2289.63 1467.5 2287.69 1468.38 L2287.69 1451.02 Z" fill="#000000" fill-rule="nonzero" fill-opacity="1" /><path clip-path="url(#clip370)" d="M1192.43 1522.27 L1192.43 1532.4 L1204.5 1532.4 L1204.5 1536.95 L1192.43 1536.95 L1192.43 1556.3 Q1192.43 1560.66 1193.61 1561.9 Q1194.82 1563.14 1198.48 1563.14 L1204.5 1563.14 L1204.5 1568.04 L1198.48 1568.04 Q1191.7 1568.04 1189.12 1565.53 Q1186.55 1562.98 1186.55 1556.3 L1186.55 1536.95 L1182.25 1536.95 L1182.25 1532.4 L1186.55 1532.4 L1186.55 1522.27 L1192.43 1522.27 Z" fill="#000000" fill-rule="nonzero" fill-opacity="1" /><path clip-path="url(#clip370)" d="M1212.2 1532.4 L1218.06 1532.4 L1218.06 1568.04 L1212.2 1568.04 L1212.2 1532.4 M1212.2 1518.52 L1218.06 1518.52 L1218.06 1525.93 L1212.2 1525.93 L1212.2 1518.52 Z" fill="#000000" fill-rule="nonzero" fill-opacity="1" /><path clip-path="url(#clip370)" d="M1258.06 1539.24 Q1260.26 1535.29 1263.32 1533.41 Q1266.37 1531.54 1270.51 1531.54 Q1276.08 1531.54 1279.1 1535.45 Q1282.13 1539.33 1282.13 1546.53 L1282.13 1568.04 L1276.24 1568.04 L1276.24 1546.72 Q1276.24 1541.59 1274.42 1539.11 Q1272.61 1536.63 1268.89 1536.63 Q1264.33 1536.63 1261.69 1539.65 Q1259.05 1542.68 1259.05 1547.9 L1259.05 1568.04 L1253.16 1568.04 L1253.16 1546.72 Q1253.16 1541.56 1251.35 1539.11 Q1249.53 1536.63 1245.75 1536.63 Q1241.26 1536.63 1238.62 1539.68 Q1235.98 1542.71 1235.98 1547.9 L1235.98 1568.04 L1230.09 1568.04 L1230.09 1532.4 L1235.98 1532.4 L1235.98 1537.93 Q1237.98 1534.66 1240.78 1533.1 Q1243.58 1531.54 1247.43 1531.54 Q1251.32 1531.54 1254.02 1533.51 Q1256.76 1535.48 1258.06 1539.24 Z" fill="#000000" fill-rule="nonzero" fill-opacity="1" /><path clip-path="url(#clip370)" d="M1324.3 1548.76 L1324.3 1551.62 L1297.37 1551.62 Q1297.75 1557.67 1301 1560.85 Q1304.28 1564 1310.1 1564 Q1313.48 1564 1316.63 1563.17 Q1319.81 1562.35 1322.93 1560.69 L1322.93 1566.23 Q1319.78 1567.57 1316.47 1568.27 Q1313.16 1568.97 1309.75 1568.97 Q1301.22 1568.97 1296.23 1564 Q1291.26 1559.04 1291.26 1550.57 Q1291.26 1541.82 1295.97 1536.69 Q1300.71 1531.54 1308.74 1531.54 Q1315.93 1531.54 1320.1 1536.18 Q1324.3 1540.8 1324.3 1548.76 M1318.44 1547.04 Q1318.38 1542.23 1315.74 1539.37 Q1313.13 1536.5 1308.8 1536.5 Q1303.9 1536.5 1300.94 1539.27 Q1298.01 1542.04 1297.56 1547.07 L1318.44 1547.04 Z" fill="#000000" fill-rule="nonzero" fill-opacity="1" /><path clip-path="url(#clip370)" d="M1368.7 1518.58 Q1364.44 1525.9 1362.37 1533.06 Q1360.3 1540.23 1360.3 1547.58 Q1360.3 1554.93 1362.37 1562.16 Q1364.47 1569.35 1368.7 1576.64 L1363.61 1576.64 Q1358.83 1569.16 1356.45 1561.93 Q1354.09 1554.71 1354.09 1547.58 Q1354.09 1540.48 1356.45 1533.29 Q1358.8 1526.09 1363.61 1518.58 L1368.7 1518.58 Z" fill="#000000" fill-rule="nonzero" fill-opacity="1" /><path clip-path="url(#clip370)" d="M1402.79 1533.45 L1402.79 1538.98 Q1400.31 1537.71 1397.63 1537.07 Q1394.96 1536.44 1392.09 1536.44 Q1387.73 1536.44 1385.54 1537.77 Q1383.37 1539.11 1383.37 1541.79 Q1383.37 1543.82 1384.93 1545 Q1386.49 1546.15 1391.2 1547.2 L1393.21 1547.64 Q1399.45 1548.98 1402.06 1551.43 Q1404.7 1553.85 1404.7 1558.21 Q1404.7 1563.17 1400.75 1566.07 Q1396.84 1568.97 1389.96 1568.97 Q1387.1 1568.97 1383.98 1568.39 Q1380.89 1567.85 1377.45 1566.74 L1377.45 1560.69 Q1380.7 1562.38 1383.85 1563.24 Q1387 1564.07 1390.09 1564.07 Q1394.23 1564.07 1396.46 1562.66 Q1398.68 1561.23 1398.68 1558.65 Q1398.68 1556.27 1397.06 1554.99 Q1395.47 1553.72 1390.03 1552.54 L1387.99 1552.07 Q1382.55 1550.92 1380.13 1548.56 Q1377.71 1546.18 1377.71 1542.04 Q1377.71 1537.01 1381.27 1534.27 Q1384.84 1531.54 1391.39 1531.54 Q1394.64 1531.54 1397.51 1532.01 Q1400.37 1532.49 1402.79 1533.45 Z" fill="#000000" fill-rule="nonzero" fill-opacity="1" /><path clip-path="url(#clip370)" d="M1413.1 1518.58 L1418.19 1518.58 Q1422.97 1526.09 1425.32 1533.29 Q1427.71 1540.48 1427.71 1547.58 Q1427.71 1554.71 1425.32 1561.93 Q1422.97 1569.16 1418.19 1576.64 L1413.1 1576.64 Q1417.33 1569.35 1419.4 1562.16 Q1421.5 1554.93 1421.5 1547.58 Q1421.5 1540.23 1419.4 1533.06 Q1417.33 1525.9 1413.1 1518.58 Z" fill="#000000" fill-rule="nonzero" fill-opacity="1" /><polyline clip-path="url(#clip370)" style="stroke:#000000; stroke-linecap:round; stroke-linejoin:round; stroke-width:4; stroke-opacity:1; fill:none" points="257.204,1423.18 257.204,123.472 "/>
<polyline clip-path="url(#clip370)" style="stroke:#000000; stroke-linecap:round; stroke-linejoin:round; stroke-width:4; stroke-opacity:1; fill:none" points="257.204,1304.13 276.102,1304.13 "/>
<polyline clip-path="url(#clip370)" style="stroke:#000000; stroke-linecap:round; stroke-linejoin:round; stroke-width:4; stroke-opacity:1; fill:none" points="257.204,1051.09 276.102,1051.09 "/>
<polyline clip-path="url(#clip370)" style="stroke:#000000; stroke-linecap:round; stroke-linejoin:round; stroke-width:4; stroke-opacity:1; fill:none" points="257.204,798.056 276.102,798.056 "/>
<polyline clip-path="url(#clip370)" style="stroke:#000000; stroke-linecap:round; stroke-linejoin:round; stroke-width:4; stroke-opacity:1; fill:none" points="257.204,545.019 276.102,545.019 "/>
<polyline clip-path="url(#clip370)" style="stroke:#000000; stroke-linecap:round; stroke-linejoin:round; stroke-width:4; stroke-opacity:1; fill:none" points="257.204,291.982 276.102,291.982 "/>
<path clip-path="url(#clip370)" d="M114.26 1304.58 L143.936 1304.58 L143.936 1308.52 L114.26 1308.52 L114.26 1304.58 Z" fill="#000000" fill-rule="nonzero" fill-opacity="1" /><path clip-path="url(#clip370)" d="M154.839 1317.47 L162.477 1317.47 L162.477 1291.11 L154.167 1292.78 L154.167 1288.52 L162.431 1286.85 L167.107 1286.85 L167.107 1317.47 L174.746 1317.47 L174.746 1321.41 L154.839 1321.41 L154.839 1317.47 Z" fill="#000000" fill-rule="nonzero" fill-opacity="1" /><path clip-path="url(#clip370)" d="M184.19 1315.53 L189.075 1315.53 L189.075 1321.41 L184.19 1321.41 L184.19 1315.53 Z" fill="#000000" fill-rule="nonzero" fill-opacity="1" /><path clip-path="url(#clip370)" d="M209.26 1289.93 Q205.649 1289.93 203.82 1293.49 Q202.014 1297.03 202.014 1304.16 Q202.014 1311.27 203.82 1314.84 Q205.649 1318.38 209.26 1318.38 Q212.894 1318.38 214.699 1314.84 Q216.528 1311.27 216.528 1304.16 Q216.528 1297.03 214.699 1293.49 Q212.894 1289.93 209.26 1289.93 M209.26 1286.22 Q215.07 1286.22 218.125 1290.83 Q221.204 1295.41 221.204 1304.16 Q221.204 1312.89 218.125 1317.5 Q215.07 1322.08 209.26 1322.08 Q203.449 1322.08 200.371 1317.5 Q197.315 1312.89 197.315 1304.16 Q197.315 1295.41 200.371 1290.83 Q203.449 1286.22 209.26 1286.22 Z" fill="#000000" fill-rule="nonzero" fill-opacity="1" /><path clip-path="url(#clip370)" d="M115.256 1051.54 L144.931 1051.54 L144.931 1055.48 L115.256 1055.48 L115.256 1051.54 Z" fill="#000000" fill-rule="nonzero" fill-opacity="1" /><path clip-path="url(#clip370)" d="M165.024 1036.89 Q161.413 1036.89 159.584 1040.46 Q157.778 1044 157.778 1051.13 Q157.778 1058.23 159.584 1061.8 Q161.413 1065.34 165.024 1065.34 Q168.658 1065.34 170.464 1061.8 Q172.292 1058.23 172.292 1051.13 Q172.292 1044 170.464 1040.46 Q168.658 1036.89 165.024 1036.89 M165.024 1033.19 Q170.834 1033.19 173.889 1037.79 Q176.968 1042.38 176.968 1051.13 Q176.968 1059.85 173.889 1064.46 Q170.834 1069.04 165.024 1069.04 Q159.214 1069.04 156.135 1064.46 Q153.079 1059.85 153.079 1051.13 Q153.079 1042.38 156.135 1037.79 Q159.214 1033.19 165.024 1033.19 Z" fill="#000000" fill-rule="nonzero" fill-opacity="1" /><path clip-path="url(#clip370)" d="M185.186 1062.49 L190.07 1062.49 L190.07 1068.37 L185.186 1068.37 L185.186 1062.49 Z" fill="#000000" fill-rule="nonzero" fill-opacity="1" /><path clip-path="url(#clip370)" d="M200.301 1033.81 L218.658 1033.81 L218.658 1037.75 L204.584 1037.75 L204.584 1046.22 Q205.602 1045.87 206.621 1045.71 Q207.639 1045.53 208.658 1045.53 Q214.445 1045.53 217.824 1048.7 Q221.204 1051.87 221.204 1057.28 Q221.204 1062.86 217.732 1065.97 Q214.26 1069.04 207.94 1069.04 Q205.764 1069.04 203.496 1068.67 Q201.25 1068.3 198.843 1067.56 L198.843 1062.86 Q200.926 1064 203.149 1064.55 Q205.371 1065.11 207.848 1065.11 Q211.852 1065.11 214.19 1063 Q216.528 1060.9 216.528 1057.28 Q216.528 1053.67 214.19 1051.57 Q211.852 1049.46 207.848 1049.46 Q205.973 1049.46 204.098 1049.88 Q202.246 1050.29 200.301 1051.17 L200.301 1033.81 Z" fill="#000000" fill-rule="nonzero" fill-opacity="1" /><path clip-path="url(#clip370)" d="M164.028 783.855 Q160.417 783.855 158.589 787.419 Q156.783 790.961 156.783 798.091 Q156.783 805.197 158.589 808.762 Q160.417 812.303 164.028 812.303 Q167.663 812.303 169.468 808.762 Q171.297 805.197 171.297 798.091 Q171.297 790.961 169.468 787.419 Q167.663 783.855 164.028 783.855 M164.028 780.151 Q169.839 780.151 172.894 784.757 Q175.973 789.341 175.973 798.091 Q175.973 806.817 172.894 811.424 Q169.839 816.007 164.028 816.007 Q158.218 816.007 155.14 811.424 Q152.084 806.817 152.084 798.091 Q152.084 789.341 155.14 784.757 Q158.218 780.151 164.028 780.151 Z" fill="#000000" fill-rule="nonzero" fill-opacity="1" /><path clip-path="url(#clip370)" d="M184.19 809.456 L189.075 809.456 L189.075 815.336 L184.19 815.336 L184.19 809.456 Z" fill="#000000" fill-rule="nonzero" fill-opacity="1" /><path clip-path="url(#clip370)" d="M209.26 783.855 Q205.649 783.855 203.82 787.419 Q202.014 790.961 202.014 798.091 Q202.014 805.197 203.82 808.762 Q205.649 812.303 209.26 812.303 Q212.894 812.303 214.699 808.762 Q216.528 805.197 216.528 798.091 Q216.528 790.961 214.699 787.419 Q212.894 783.855 209.26 783.855 M209.26 780.151 Q215.07 780.151 218.125 784.757 Q221.204 789.341 221.204 798.091 Q221.204 806.817 218.125 811.424 Q215.07 816.007 209.26 816.007 Q203.449 816.007 200.371 811.424 Q197.315 806.817 197.315 798.091 Q197.315 789.341 200.371 784.757 Q203.449 780.151 209.26 780.151 Z" fill="#000000" fill-rule="nonzero" fill-opacity="1" /><path clip-path="url(#clip370)" d="M165.024 530.818 Q161.413 530.818 159.584 534.383 Q157.778 537.924 157.778 545.054 Q157.778 552.16 159.584 555.725 Q161.413 559.267 165.024 559.267 Q168.658 559.267 170.464 555.725 Q172.292 552.16 172.292 545.054 Q172.292 537.924 170.464 534.383 Q168.658 530.818 165.024 530.818 M165.024 527.114 Q170.834 527.114 173.889 531.721 Q176.968 536.304 176.968 545.054 Q176.968 553.781 173.889 558.387 Q170.834 562.97 165.024 562.97 Q159.214 562.97 156.135 558.387 Q153.079 553.781 153.079 545.054 Q153.079 536.304 156.135 531.721 Q159.214 527.114 165.024 527.114 Z" fill="#000000" fill-rule="nonzero" fill-opacity="1" /><path clip-path="url(#clip370)" d="M185.186 556.419 L190.07 556.419 L190.07 562.299 L185.186 562.299 L185.186 556.419 Z" fill="#000000" fill-rule="nonzero" fill-opacity="1" /><path clip-path="url(#clip370)" d="M200.301 527.739 L218.658 527.739 L218.658 531.674 L204.584 531.674 L204.584 540.146 Q205.602 539.799 206.621 539.637 Q207.639 539.452 208.658 539.452 Q214.445 539.452 217.824 542.623 Q221.204 545.795 221.204 551.211 Q221.204 556.79 217.732 559.892 Q214.26 562.97 207.94 562.97 Q205.764 562.97 203.496 562.6 Q201.25 562.23 198.843 561.489 L198.843 556.79 Q200.926 557.924 203.149 558.48 Q205.371 559.035 207.848 559.035 Q211.852 559.035 214.19 556.929 Q216.528 554.822 216.528 551.211 Q216.528 547.6 214.19 545.494 Q211.852 543.387 207.848 543.387 Q205.973 543.387 204.098 543.804 Q202.246 544.22 200.301 545.1 L200.301 527.739 Z" fill="#000000" fill-rule="nonzero" fill-opacity="1" /><path clip-path="url(#clip370)" d="M154.839 305.327 L162.477 305.327 L162.477 278.961 L154.167 280.628 L154.167 276.369 L162.431 274.702 L167.107 274.702 L167.107 305.327 L174.746 305.327 L174.746 309.262 L154.839 309.262 L154.839 305.327 Z" fill="#000000" fill-rule="nonzero" fill-opacity="1" /><path clip-path="url(#clip370)" d="M184.19 303.383 L189.075 303.383 L189.075 309.262 L184.19 309.262 L184.19 303.383 Z" fill="#000000" fill-rule="nonzero" fill-opacity="1" /><path clip-path="url(#clip370)" d="M209.26 277.781 Q205.649 277.781 203.82 281.346 Q202.014 284.887 202.014 292.017 Q202.014 299.123 203.82 302.688 Q205.649 306.23 209.26 306.23 Q212.894 306.23 214.699 302.688 Q216.528 299.123 216.528 292.017 Q216.528 284.887 214.699 281.346 Q212.894 277.781 209.26 277.781 M209.26 274.077 Q215.07 274.077 218.125 278.684 Q221.204 283.267 221.204 292.017 Q221.204 300.744 218.125 305.35 Q215.07 309.934 209.26 309.934 Q203.449 309.934 200.371 305.35 Q197.315 300.744 197.315 292.017 Q197.315 283.267 200.371 278.684 Q203.449 274.077 209.26 274.077 Z" fill="#000000" fill-rule="nonzero" fill-opacity="1" /><path clip-path="url(#clip370)" d="M46.0847 915.902 Q46.0847 923 47.7079 925.737 Q49.3312 928.474 53.2461 928.474 Q56.3653 928.474 58.2114 926.437 Q60.0256 924.368 60.0256 920.835 Q60.0256 915.966 56.5881 913.037 Q53.1188 910.077 47.3897 910.077 L46.0847 910.077 L46.0847 915.902 M43.6657 904.221 L64.0042 904.221 L64.0042 910.077 L58.5933 910.077 Q61.8398 912.082 63.3994 915.074 Q64.9272 918.066 64.9272 922.395 Q64.9272 927.869 61.8716 931.116 Q58.7843 934.331 53.6281 934.331 Q47.6125 934.331 44.5569 930.32 Q41.5014 926.278 41.5014 918.289 L41.5014 910.077 L40.9285 910.077 Q36.8862 910.077 34.6901 912.751 Q32.4621 915.393 32.4621 920.199 Q32.4621 923.254 33.1941 926.151 Q33.9262 929.047 35.3903 931.721 L29.9795 931.721 Q28.7381 928.506 28.1334 925.482 Q27.4968 922.459 27.4968 919.594 Q27.4968 911.86 31.5072 908.04 Q35.5176 904.221 43.6657 904.221 Z" fill="#000000" fill-rule="nonzero" fill-opacity="1" /><path clip-path="url(#clip370)" d="M35.1993 864.403 Q31.2526 862.207 29.3747 859.152 Q27.4968 856.096 27.4968 851.958 Q27.4968 846.388 31.4117 843.365 Q35.2948 840.341 42.4881 840.341 L64.0042 840.341 L64.0042 846.229 L42.679 846.229 Q37.5546 846.229 35.072 848.043 Q32.5894 849.858 32.5894 853.582 Q32.5894 858.133 35.6131 860.775 Q38.6368 863.417 43.8567 863.417 L64.0042 863.417 L64.0042 869.305 L42.679 869.305 Q37.5228 869.305 35.072 871.119 Q32.5894 872.933 32.5894 876.721 Q32.5894 881.209 35.6449 883.851 Q38.6686 886.492 43.8567 886.492 L64.0042 886.492 L64.0042 892.381 L28.3562 892.381 L28.3562 886.492 L33.8944 886.492 Q30.616 884.487 29.0564 881.686 Q27.4968 878.885 27.4968 875.034 Q27.4968 871.151 29.4702 868.446 Q31.4436 865.708 35.1993 864.403 Z" fill="#000000" fill-rule="nonzero" fill-opacity="1" /><path clip-path="url(#clip370)" d="M58.657 822.994 L77.5631 822.994 L77.5631 828.883 L28.3562 828.883 L28.3562 822.994 L33.7671 822.994 Q30.5842 821.148 29.0564 818.347 Q27.4968 815.515 27.4968 811.6 Q27.4968 805.107 32.6531 801.065 Q37.8093 796.99 46.212 796.99 Q54.6147 796.99 59.771 801.065 Q64.9272 805.107 64.9272 811.6 Q64.9272 815.515 63.3994 818.347 Q61.8398 821.148 58.657 822.994 M46.212 803.07 Q39.7508 803.07 36.0905 805.743 Q32.3984 808.385 32.3984 813.032 Q32.3984 817.679 36.0905 820.353 Q39.7508 822.994 46.212 822.994 Q52.6732 822.994 56.3653 820.353 Q60.0256 817.679 60.0256 813.032 Q60.0256 808.385 56.3653 805.743 Q52.6732 803.07 46.212 803.07 Z" fill="#000000" fill-rule="nonzero" fill-opacity="1" /><path clip-path="url(#clip370)" d="M14.479 787.283 L14.479 781.426 L64.0042 781.426 L64.0042 787.283 L14.479 787.283 Z" fill="#000000" fill-rule="nonzero" fill-opacity="1" /><path clip-path="url(#clip370)" d="M28.3562 769.172 L28.3562 763.316 L64.0042 763.316 L64.0042 769.172 L28.3562 769.172 M14.479 769.172 L14.479 763.316 L21.895 763.316 L21.895 769.172 L14.479 769.172 Z" fill="#000000" fill-rule="nonzero" fill-opacity="1" /><path clip-path="url(#clip370)" d="M18.2347 745.269 L28.3562 745.269 L28.3562 733.206 L32.9077 733.206 L32.9077 745.269 L52.2594 745.269 Q56.6199 745.269 57.8613 744.091 Q59.1026 742.882 59.1026 739.222 L59.1026 733.206 L64.0042 733.206 L64.0042 739.222 Q64.0042 746.001 61.4897 748.579 Q58.9434 751.157 52.2594 751.157 L32.9077 751.157 L32.9077 755.454 L28.3562 755.454 L28.3562 751.157 L18.2347 751.157 L18.2347 745.269 Z" fill="#000000" fill-rule="nonzero" fill-opacity="1" /><path clip-path="url(#clip370)" d="M49.9359 726.108 L28.3562 726.108 L28.3562 720.252 L49.7131 720.252 Q54.7739 720.252 57.3202 718.279 Q59.8346 716.305 59.8346 712.358 Q59.8346 707.616 56.8109 704.879 Q53.7872 702.11 48.5673 702.11 L28.3562 702.11 L28.3562 696.253 L64.0042 696.253 L64.0042 702.11 L58.5296 702.11 Q61.7762 704.242 63.3676 707.075 Q64.9272 709.876 64.9272 713.6 Q64.9272 719.743 61.1078 722.926 Q57.2883 726.108 49.9359 726.108 M27.4968 711.372 L27.4968 711.372 Z" fill="#000000" fill-rule="nonzero" fill-opacity="1" /><path clip-path="url(#clip370)" d="M33.7671 660.733 L14.479 660.733 L14.479 654.876 L64.0042 654.876 L64.0042 660.733 L58.657 660.733 Q61.8398 662.579 63.3994 665.411 Q64.9272 668.212 64.9272 672.159 Q64.9272 678.62 59.771 682.694 Q54.6147 686.736 46.212 686.736 Q37.8093 686.736 32.6531 682.694 Q27.4968 678.62 27.4968 672.159 Q27.4968 668.212 29.0564 665.411 Q30.5842 662.579 33.7671 660.733 M46.212 680.689 Q52.6732 680.689 56.3653 678.047 Q60.0256 675.374 60.0256 670.727 Q60.0256 666.08 56.3653 663.406 Q52.6732 660.733 46.212 660.733 Q39.7508 660.733 36.0905 663.406 Q32.3984 666.08 32.3984 670.727 Q32.3984 675.374 36.0905 678.047 Q39.7508 680.689 46.212 680.689 Z" fill="#000000" fill-rule="nonzero" fill-opacity="1" /><path clip-path="url(#clip370)" d="M44.7161 612.321 L47.5806 612.321 L47.5806 639.248 Q53.6281 638.866 56.8109 635.62 Q59.9619 632.341 59.9619 626.517 Q59.9619 623.143 59.1344 619.992 Q58.3069 616.809 56.6518 613.69 L62.1899 613.69 Q63.5267 616.841 64.227 620.151 Q64.9272 623.461 64.9272 626.867 Q64.9272 635.397 59.9619 640.394 Q54.9967 645.359 46.5303 645.359 Q37.7774 645.359 32.6531 640.649 Q27.4968 635.906 27.4968 627.886 Q27.4968 620.692 32.1438 616.523 Q36.7589 612.321 44.7161 612.321 M42.9973 618.178 Q38.1912 618.241 35.3266 620.883 Q32.4621 623.493 32.4621 627.822 Q32.4621 632.723 35.2312 635.683 Q38.0002 638.612 43.0292 639.057 L42.9973 618.178 Z" fill="#000000" fill-rule="nonzero" fill-opacity="1" /><path clip-path="url(#clip370)" d="M904.528 28.9478 L904.528 35.9153 Q901.368 34.1734 898.168 33.3227 Q895.008 32.4315 891.767 32.4315 Q884.516 32.4315 880.506 37.0496 Q876.496 41.6271 876.496 49.9314 Q876.496 58.2358 880.506 62.8538 Q884.516 67.4314 891.767 67.4314 Q895.008 67.4314 898.168 66.5807 Q901.368 65.6895 904.528 63.9476 L904.528 70.8341 Q901.409 72.2924 898.046 73.0216 Q894.725 73.7508 890.957 73.7508 Q880.709 73.7508 874.673 67.3098 Q868.637 60.8689 868.637 49.9314 Q868.637 38.832 874.713 32.472 Q880.83 26.1121 891.443 26.1121 Q894.887 26.1121 898.168 26.8413 Q901.449 27.5299 904.528 28.9478 Z" fill="#000000" fill-rule="nonzero" fill-opacity="1" /><path clip-path="url(#clip370)" d="M917.491 9.54393 L924.944 9.54393 L924.944 72.576 L917.491 72.576 L917.491 9.54393 Z" fill="#000000" fill-rule="nonzero" fill-opacity="1" /><path clip-path="url(#clip370)" d="M979.348 48.0275 L979.348 51.6733 L945.077 51.6733 Q945.563 59.3701 949.695 63.421 Q953.868 67.4314 961.281 67.4314 Q965.575 67.4314 969.585 66.3781 Q973.636 65.3249 977.606 63.2184 L977.606 70.267 Q973.596 71.9684 969.383 72.8596 Q965.17 73.7508 960.835 73.7508 Q949.979 73.7508 943.619 67.4314 Q937.3 61.1119 937.3 50.3365 Q937.3 39.1965 943.295 32.6746 Q949.331 26.1121 959.539 26.1121 Q968.694 26.1121 974.001 32.0264 Q979.348 37.9003 979.348 48.0275 M971.894 45.84 Q971.813 39.7232 968.451 36.0774 Q965.129 32.4315 959.62 32.4315 Q953.382 32.4315 949.614 35.9558 Q945.888 39.4801 945.32 45.8805 L971.894 45.84 Z" fill="#000000" fill-rule="nonzero" fill-opacity="1" /><path clip-path="url(#clip370)" d="M1012.2 49.7694 Q1003.17 49.7694 999.684 51.8354 Q996.2 53.9013 996.2 58.8839 Q996.2 62.8538 998.792 65.2034 Q1001.43 67.5124 1005.92 67.5124 Q1012.12 67.5124 1015.85 63.1374 Q1019.61 58.7219 1019.61 51.4303 L1019.61 49.7694 L1012.2 49.7694 M1027.07 46.6907 L1027.07 72.576 L1019.61 72.576 L1019.61 65.6895 Q1017.06 69.8214 1013.25 71.8063 Q1009.45 73.7508 1003.94 73.7508 Q996.969 73.7508 992.838 69.8619 Q988.746 65.9325 988.746 59.3701 Q988.746 51.7138 993.85 47.825 Q998.995 43.9361 1009.16 43.9361 L1019.61 43.9361 L1019.61 43.2069 Q1019.61 38.0623 1016.21 35.2672 Q1012.85 32.4315 1006.73 32.4315 Q1002.84 32.4315 999.157 33.3632 Q995.471 34.295 992.068 36.1584 L992.068 29.2718 Q996.159 27.692 1000.01 26.9223 Q1003.86 26.1121 1007.5 26.1121 Q1017.35 26.1121 1022.21 31.2163 Q1027.07 36.3204 1027.07 46.6907 Z" fill="#000000" fill-rule="nonzero" fill-opacity="1" /><path clip-path="url(#clip370)" d="M1080.13 45.1919 L1080.13 72.576 L1072.68 72.576 L1072.68 45.4349 Q1072.68 38.994 1070.17 35.7938 Q1067.66 32.5936 1062.63 32.5936 Q1056.6 32.5936 1053.11 36.4419 Q1049.63 40.2903 1049.63 46.9338 L1049.63 72.576 L1042.14 72.576 L1042.14 27.2059 L1049.63 27.2059 L1049.63 34.2544 Q1052.3 30.163 1055.91 28.1376 Q1059.56 26.1121 1064.3 26.1121 Q1072.11 26.1121 1076.12 30.9732 Q1080.13 35.7938 1080.13 45.1919 Z" fill="#000000" fill-rule="nonzero" fill-opacity="1" /><path clip-path="url(#clip370)" d="M1116.03 27.2059 L1123.92 27.2059 L1138.1 65.2844 L1152.28 27.2059 L1160.18 27.2059 L1143.17 72.576 L1133.04 72.576 L1116.03 27.2059 Z" fill="#000000" fill-rule="nonzero" fill-opacity="1" /><path clip-path="url(#clip370)" d="M1199.39 28.5427 L1199.39 35.5912 Q1196.23 33.9709 1192.83 33.1607 Q1189.43 32.3505 1185.78 32.3505 Q1180.23 32.3505 1177.44 34.0519 Q1174.68 35.7533 1174.68 39.156 Q1174.68 41.7486 1176.67 43.2475 Q1178.65 44.7058 1184.65 46.0426 L1187.2 46.6097 Q1195.14 48.3111 1198.46 51.4303 Q1201.82 54.509 1201.82 60.0587 Q1201.82 66.3781 1196.8 70.0644 Q1191.82 73.7508 1183.07 73.7508 Q1179.42 73.7508 1175.45 73.0216 Q1171.52 72.3329 1167.15 70.9151 L1167.15 63.2184 Q1171.28 65.3654 1175.29 66.4591 Q1179.3 67.5124 1183.23 67.5124 Q1188.5 67.5124 1191.33 65.73 Q1194.17 63.9071 1194.17 60.6258 Q1194.17 57.5877 1192.1 55.9673 Q1190.08 54.3469 1183.15 52.8481 L1180.56 52.2405 Q1173.63 50.7821 1170.55 47.7845 Q1167.47 44.7463 1167.47 39.4801 Q1167.47 33.0797 1172.01 29.5959 Q1176.55 26.1121 1184.89 26.1121 Q1189.02 26.1121 1192.67 26.7198 Q1196.31 27.3274 1199.39 28.5427 Z" fill="#000000" fill-rule="nonzero" fill-opacity="1" /><path clip-path="url(#clip370)" d="M1214.75 62.2867 L1223.29 62.2867 L1223.29 72.576 L1214.75 72.576 L1214.75 62.2867 Z" fill="#000000" fill-rule="nonzero" fill-opacity="1" /><path clip-path="url(#clip370)" d="M1304.15 45.1919 L1304.15 72.576 L1296.7 72.576 L1296.7 45.4349 Q1296.7 38.994 1294.18 35.7938 Q1291.67 32.5936 1286.65 32.5936 Q1280.61 32.5936 1277.13 36.4419 Q1273.65 40.2903 1273.65 46.9338 L1273.65 72.576 L1266.15 72.576 L1266.15 27.2059 L1273.65 27.2059 L1273.65 34.2544 Q1276.32 30.163 1279.93 28.1376 Q1283.57 26.1121 1288.31 26.1121 Q1296.13 26.1121 1300.14 30.9732 Q1304.15 35.7938 1304.15 45.1919 Z" fill="#000000" fill-rule="nonzero" fill-opacity="1" /><path clip-path="url(#clip370)" d="M1336.6 32.4315 Q1330.6 32.4315 1327.12 37.1306 Q1323.63 41.7891 1323.63 49.9314 Q1323.63 58.0738 1327.08 62.7728 Q1330.56 67.4314 1336.6 67.4314 Q1342.55 67.4314 1346.04 62.7323 Q1349.52 58.0333 1349.52 49.9314 Q1349.52 41.8701 1346.04 37.1711 Q1342.55 32.4315 1336.6 32.4315 M1336.6 26.1121 Q1346.32 26.1121 1351.87 32.4315 Q1357.42 38.7509 1357.42 49.9314 Q1357.42 61.0714 1351.87 67.4314 Q1346.32 73.7508 1336.6 73.7508 Q1326.83 73.7508 1321.28 67.4314 Q1315.78 61.0714 1315.78 49.9314 Q1315.78 38.7509 1321.28 32.4315 Q1326.83 26.1121 1336.6 26.1121 Z" fill="#000000" fill-rule="nonzero" fill-opacity="1" /><path clip-path="url(#clip370)" d="M1369.77 27.2059 L1377.23 27.2059 L1377.23 72.576 L1369.77 72.576 L1369.77 27.2059 M1369.77 9.54393 L1377.23 9.54393 L1377.23 18.9825 L1369.77 18.9825 L1369.77 9.54393 Z" fill="#000000" fill-rule="nonzero" fill-opacity="1" /><path clip-path="url(#clip370)" d="M1421.75 28.5427 L1421.75 35.5912 Q1418.59 33.9709 1415.18 33.1607 Q1411.78 32.3505 1408.14 32.3505 Q1402.59 32.3505 1399.79 34.0519 Q1397.04 35.7533 1397.04 39.156 Q1397.04 41.7486 1399.02 43.2475 Q1401.01 44.7058 1407 46.0426 L1409.55 46.6097 Q1417.49 48.3111 1420.82 51.4303 Q1424.18 54.509 1424.18 60.0587 Q1424.18 66.3781 1419.15 70.0644 Q1414.17 73.7508 1405.42 73.7508 Q1401.78 73.7508 1397.81 73.0216 Q1393.88 72.3329 1389.5 70.9151 L1389.5 63.2184 Q1393.63 65.3654 1397.64 66.4591 Q1401.65 67.5124 1405.58 67.5124 Q1410.85 67.5124 1413.69 65.73 Q1416.52 63.9071 1416.52 60.6258 Q1416.52 57.5877 1414.46 55.9673 Q1412.43 54.3469 1405.5 52.8481 L1402.91 52.2405 Q1395.98 50.7821 1392.9 47.7845 Q1389.83 44.7463 1389.83 39.4801 Q1389.83 33.0797 1394.36 29.5959 Q1398.9 26.1121 1407.25 26.1121 Q1411.38 26.1121 1415.02 26.7198 Q1418.67 27.3274 1421.75 28.5427 Z" fill="#000000" fill-rule="nonzero" fill-opacity="1" /><path clip-path="url(#clip370)" d="M1454.92 76.7889 Q1451.76 84.8907 1448.77 87.3618 Q1445.77 89.8329 1440.75 89.8329 L1434.79 89.8329 L1434.79 83.5945 L1439.17 83.5945 Q1442.24 83.5945 1443.95 82.1361 Q1445.65 80.6778 1447.71 75.2496 L1449.05 71.8468 L1430.7 27.2059 L1438.6 27.2059 L1452.78 62.6918 L1466.96 27.2059 L1474.85 27.2059 L1454.92 76.7889 Z" fill="#000000" fill-rule="nonzero" fill-opacity="1" /><path clip-path="url(#clip370)" d="M1540.44 28.5427 L1540.44 35.5912 Q1537.28 33.9709 1533.88 33.1607 Q1530.47 32.3505 1526.83 32.3505 Q1521.28 32.3505 1518.48 34.0519 Q1515.73 35.7533 1515.73 39.156 Q1515.73 41.7486 1517.71 43.2475 Q1519.7 44.7058 1525.69 46.0426 L1528.25 46.6097 Q1536.19 48.3111 1539.51 51.4303 Q1542.87 54.509 1542.87 60.0587 Q1542.87 66.3781 1537.85 70.0644 Q1532.86 73.7508 1524.11 73.7508 Q1520.47 73.7508 1516.5 73.0216 Q1512.57 72.3329 1508.19 70.9151 L1508.19 63.2184 Q1512.33 65.3654 1516.34 66.4591 Q1520.35 67.5124 1524.28 67.5124 Q1529.54 67.5124 1532.38 65.73 Q1535.21 63.9071 1535.21 60.6258 Q1535.21 57.5877 1533.15 55.9673 Q1531.12 54.3469 1524.19 52.8481 L1521.6 52.2405 Q1514.68 50.7821 1511.6 47.7845 Q1508.52 44.7463 1508.52 39.4801 Q1508.52 33.0797 1513.05 29.5959 Q1517.59 26.1121 1525.94 26.1121 Q1530.07 26.1121 1533.71 26.7198 Q1537.36 27.3274 1540.44 28.5427 Z" fill="#000000" fill-rule="nonzero" fill-opacity="1" /><path clip-path="url(#clip370)" d="M1554.74 27.2059 L1562.19 27.2059 L1562.19 72.576 L1554.74 72.576 L1554.74 27.2059 M1554.74 9.54393 L1562.19 9.54393 L1562.19 18.9825 L1554.74 18.9825 L1554.74 9.54393 Z" fill="#000000" fill-rule="nonzero" fill-opacity="1" /><path clip-path="url(#clip370)" d="M1607.64 49.3643 Q1607.64 41.2625 1604.28 36.8065 Q1600.96 32.3505 1594.92 32.3505 Q1588.93 32.3505 1585.57 36.8065 Q1582.24 41.2625 1582.24 49.3643 Q1582.24 57.4256 1585.57 61.8816 Q1588.93 66.3376 1594.92 66.3376 Q1600.96 66.3376 1604.28 61.8816 Q1607.64 57.4256 1607.64 49.3643 M1615.1 66.9452 Q1615.1 78.5308 1609.95 84.1616 Q1604.81 89.8329 1594.19 89.8329 Q1590.26 89.8329 1586.78 89.2252 Q1583.3 88.6581 1580.02 87.4428 L1580.02 80.1917 Q1583.3 81.9741 1586.5 82.8248 Q1589.7 83.6755 1593.02 83.6755 Q1600.35 83.6755 1604 79.8271 Q1607.64 76.0193 1607.64 68.282 L1607.64 64.5957 Q1605.33 68.6061 1601.73 70.5911 Q1598.12 72.576 1593.1 72.576 Q1584.76 72.576 1579.65 66.2161 Q1574.55 59.8562 1574.55 49.3643 Q1574.55 38.832 1579.65 32.472 Q1584.76 26.1121 1593.1 26.1121 Q1598.12 26.1121 1601.73 28.0971 Q1605.33 30.082 1607.64 34.0924 L1607.64 27.2059 L1615.1 27.2059 L1615.1 66.9452 Z" fill="#000000" fill-rule="nonzero" fill-opacity="1" /><path clip-path="url(#clip370)" d="M1668.16 45.1919 L1668.16 72.576 L1660.71 72.576 L1660.71 45.4349 Q1660.71 38.994 1658.2 35.7938 Q1655.69 32.5936 1650.66 32.5936 Q1644.63 32.5936 1641.14 36.4419 Q1637.66 40.2903 1637.66 46.9338 L1637.66 72.576 L1630.17 72.576 L1630.17 27.2059 L1637.66 27.2059 L1637.66 34.2544 Q1640.33 30.163 1643.94 28.1376 Q1647.59 26.1121 1652.32 26.1121 Q1660.14 26.1121 1664.15 30.9732 Q1668.16 35.7938 1668.16 45.1919 Z" fill="#000000" fill-rule="nonzero" fill-opacity="1" /><path clip-path="url(#clip370)" d="M1703.65 49.7694 Q1694.62 49.7694 1691.13 51.8354 Q1687.65 53.9013 1687.65 58.8839 Q1687.65 62.8538 1690.24 65.2034 Q1692.87 67.5124 1697.37 67.5124 Q1703.57 67.5124 1707.3 63.1374 Q1711.06 58.7219 1711.06 51.4303 L1711.06 49.7694 L1703.65 49.7694 M1718.52 46.6907 L1718.52 72.576 L1711.06 72.576 L1711.06 65.6895 Q1708.51 69.8214 1704.7 71.8063 Q1700.9 73.7508 1695.39 73.7508 Q1688.42 73.7508 1684.29 69.8619 Q1680.19 65.9325 1680.19 59.3701 Q1680.19 51.7138 1685.3 47.825 Q1690.44 43.9361 1700.61 43.9361 L1711.06 43.9361 L1711.06 43.2069 Q1711.06 38.0623 1707.66 35.2672 Q1704.3 32.4315 1698.18 32.4315 Q1694.29 32.4315 1690.61 33.3632 Q1686.92 34.295 1683.52 36.1584 L1683.52 29.2718 Q1687.61 27.692 1691.46 26.9223 Q1695.3 26.1121 1698.95 26.1121 Q1708.79 26.1121 1713.66 31.2163 Q1718.52 36.3204 1718.52 46.6907 Z" fill="#000000" fill-rule="nonzero" fill-opacity="1" /><path clip-path="url(#clip370)" d="M1733.87 9.54393 L1741.32 9.54393 L1741.32 72.576 L1733.87 72.576 L1733.87 9.54393 Z" fill="#000000" fill-rule="nonzero" fill-opacity="1" /><polyline clip-path="url(#clip372)" style="stroke:#009af9; stroke-linecap:round; stroke-linejoin:round; stroke-width:4; stroke-opacity:1; fill:none" points="316.512,798.056 320.474,316.751 324.436,500.593 328.397,1095.52 332.359,1279.36 336.321,798.056 340.283,316.751 344.245,500.593 348.206,1095.52 352.168,1279.36 356.13,798.056 360.092,316.751 364.054,500.593 368.015,1095.52 371.977,1279.36 375.939,798.056 379.901,316.751 383.863,500.593 387.824,1095.52 391.786,1279.36 395.748,798.056 399.71,316.751 403.672,500.593 407.633,1095.52 411.595,1279.36 415.557,798.056 419.519,316.751 423.481,500.593 427.442,1095.52 431.404,1279.36 435.366,798.056 439.328,316.751 443.29,500.593 447.251,1095.52 451.213,1279.36 455.175,798.056 459.137,316.751 463.099,500.593 467.06,1095.52 471.022,1279.36 474.984,798.056 478.946,316.751 482.907,500.593 486.869,1095.52 490.831,1279.36 494.793,798.056 498.755,316.751 502.716,500.593 506.678,1095.52 510.64,1279.36 514.602,798.056 518.564,316.751 522.525,500.593 526.487,1095.52 530.449,1279.36 534.411,798.056 538.373,316.751 542.334,500.593 546.296,1095.52 550.258,1279.36 554.22,798.056 558.182,316.751 562.143,500.593 566.105,1095.52 570.067,1279.36 574.029,798.056 577.991,316.751 581.952,500.593 585.914,1095.52 589.876,1279.36 593.838,798.056 597.8,316.751 601.761,500.593 605.723,1095.52 609.685,1279.36 613.647,798.056 617.609,316.751 621.57,500.593 625.532,1095.52 629.494,1279.36 633.456,798.056 637.418,316.751 641.379,500.593 645.341,1095.52 649.303,1279.36 653.265,798.056 657.226,316.751 661.188,500.593 665.15,1095.52 669.112,1279.36 673.074,798.056 677.035,316.751 680.997,500.593 684.959,1095.52 688.921,1279.36 692.883,798.056 696.844,316.751 700.806,500.593 704.768,1095.52 708.73,1279.36 712.692,798.056 716.653,316.751 720.615,500.593 724.577,1095.52 728.539,1279.36 732.501,798.056 736.462,316.751 740.424,500.593 744.386,1095.52 748.348,1279.36 752.31,798.056 756.271,316.751 760.233,500.593 764.195,1095.52 768.157,1279.36 772.119,798.056 776.08,316.751 780.042,500.593 784.004,1095.52 787.966,1279.36 791.928,798.056 795.889,316.751 799.851,500.593 803.813,1095.52 807.775,1279.36 811.736,798.056 815.698,316.751 819.66,500.593 823.622,1095.52 827.584,1279.36 831.545,798.056 835.507,316.751 839.469,500.593 843.431,1095.52 847.393,1279.36 851.354,798.056 855.316,316.751 859.278,500.593 863.24,1095.52 867.202,1279.36 871.163,798.056 875.125,316.751 879.087,500.593 883.049,1095.52 887.011,1279.36 890.972,798.056 894.934,316.751 898.896,500.593 902.858,1095.52 906.82,1279.36 910.781,798.056 914.743,316.751 918.705,500.593 922.667,1095.52 926.629,1279.36 930.59,798.056 934.552,316.751 938.514,500.593 942.476,1095.52 946.438,1279.36 950.399,798.056 954.361,316.751 958.323,500.593 962.285,1095.52 966.246,1279.36 970.208,798.056 974.17,316.751 978.132,500.593 982.094,1095.52 986.055,1279.36 990.017,798.056 993.979,316.751 997.941,500.593 1001.9,1095.52 1005.86,1279.36 1009.83,798.056 1013.79,316.751 1017.75,500.593 1021.71,1095.52 1025.67,1279.36 1029.64,798.056 1033.6,316.751 1037.56,500.593 1041.52,1095.52 1045.48,1279.36 1049.44,798.056 1053.41,316.751 1057.37,500.593 1061.33,1095.52 1065.29,1279.36 1069.25,798.056 1073.21,316.751 1077.18,500.593 1081.14,1095.52 1085.1,1279.36 1089.06,798.056 1093.02,316.751 1096.99,500.593 1100.95,1095.52 1104.91,1279.36 1108.87,798.056 1112.83,316.751 1116.79,500.593 1120.76,1095.52 1124.72,1279.36 1128.68,798.056 1132.64,316.751 1136.6,500.593 1140.57,1095.52 1144.53,1279.36 1148.49,798.056 1152.45,316.751 1156.41,500.593 1160.37,1095.52 1164.34,1279.36 1168.3,798.056 1172.26,316.751 1176.22,500.593 1180.18,1095.52 1184.15,1279.36 1188.11,798.056 1192.07,316.751 1196.03,500.593 1199.99,1095.52 1203.95,1279.36 1207.92,798.056 1211.88,316.751 1215.84,500.593 1219.8,1095.52 1223.76,1279.36 1227.72,798.056 1231.69,316.751 1235.65,500.593 1239.61,1095.52 1243.57,1279.36 1247.53,798.056 1251.5,316.751 1255.46,500.593 1259.42,1095.52 1263.38,1279.36 1267.34,798.056 1271.3,316.751 1275.27,500.593 1279.23,1095.52 1283.19,1279.36 1287.15,798.056 1291.11,316.751 1295.08,500.593 1299.04,1095.52 1303,1279.36 1306.96,798.056 1310.92,316.751 1314.88,500.593 1318.85,1095.52 1322.81,1279.36 1326.77,798.056 1330.73,316.751 1334.69,500.593 1338.66,1095.52 1342.62,1279.36 1346.58,798.056 1350.54,316.751 1354.5,500.593 1358.46,1095.52 1362.43,1279.36 1366.39,798.056 1370.35,316.751 1374.31,500.593 1378.27,1095.52 1382.23,1279.36 1386.2,798.056 1390.16,316.751 1394.12,500.593 1398.08,1095.52 1402.04,1279.36 1406.01,798.056 1409.97,316.751 1413.93,500.593 1417.89,1095.52 1421.85,1279.36 1425.81,798.056 1429.78,316.751 1433.74,500.593 1437.7,1095.52 1441.66,1279.36 1445.62,798.056 1449.59,316.751 1453.55,500.593 1457.51,1095.52 1461.47,1279.36 1465.43,798.056 1469.39,316.751 1473.36,500.593 1477.32,1095.52 1481.28,1279.36 1485.24,798.056 1489.2,316.751 1493.17,500.593 1497.13,1095.52 1501.09,1279.36 1505.05,798.056 1509.01,316.751 1512.97,500.593 1516.94,1095.52 1520.9,1279.36 1524.86,798.056 1528.82,316.751 1532.78,500.593 1536.74,1095.52 1540.71,1279.36 1544.67,798.056 1548.63,316.751 1552.59,500.593 1556.55,1095.52 1560.52,1279.36 1564.48,798.056 1568.44,316.751 1572.4,500.593 1576.36,1095.52 1580.32,1279.36 1584.29,798.056 1588.25,316.751 1592.21,500.593 1596.17,1095.52 1600.13,1279.36 1604.1,798.056 1608.06,316.751 1612.02,500.593 1615.98,1095.52 1619.94,1279.36 1623.9,798.056 1627.87,316.751 1631.83,500.593 1635.79,1095.52 1639.75,1279.36 1643.71,798.056 1647.68,316.751 1651.64,500.593 1655.6,1095.52 1659.56,1279.36 1663.52,798.056 1667.48,316.751 1671.45,500.593 1675.41,1095.52 1679.37,1279.36 1683.33,798.056 1687.29,316.751 1691.25,500.593 1695.22,1095.52 1699.18,1279.36 1703.14,798.056 1707.1,316.751 1711.06,500.593 1715.03,1095.52 1718.99,1279.36 1722.95,798.056 1726.91,316.751 1730.87,500.593 1734.83,1095.52 1738.8,1279.36 1742.76,798.056 1746.72,316.751 1750.68,500.593 1754.64,1095.52 1758.61,1279.36 1762.57,798.056 1766.53,316.751 1770.49,500.593 1774.45,1095.52 1778.41,1279.36 1782.38,798.056 1786.34,316.751 1790.3,500.593 1794.26,1095.52 1798.22,1279.36 1802.19,798.056 1806.15,316.751 1810.11,500.593 1814.07,1095.52 1818.03,1279.36 1821.99,798.056 1825.96,316.751 1829.92,500.593 1833.88,1095.52 1837.84,1279.36 1841.8,798.056 1845.76,316.751 1849.73,500.593 1853.69,1095.52 1857.65,1279.36 1861.61,798.056 1865.57,316.751 1869.54,500.593 1873.5,1095.52 1877.46,1279.36 1881.42,798.056 1885.38,316.751 1889.34,500.593 1893.31,1095.52 1897.27,1279.36 1901.23,798.056 1905.19,316.751 1909.15,500.593 1913.12,1095.52 1917.08,1279.36 1921.04,798.056 1925,316.751 1928.96,500.593 1932.92,1095.52 1936.89,1279.36 1940.85,798.056 1944.81,316.751 1948.77,500.593 1952.73,1095.52 1956.7,1279.36 1960.66,798.056 1964.62,316.751 1968.58,500.593 1972.54,1095.52 1976.5,1279.36 1980.47,798.056 1984.43,316.751 1988.39,500.593 1992.35,1095.52 1996.31,1279.36 2000.27,798.056 2004.24,316.751 2008.2,500.593 2012.16,1095.52 2016.12,1279.36 2020.08,798.056 2024.05,316.751 2028.01,500.593 2031.97,1095.52 2035.93,1279.36 2039.89,798.056 2043.85,316.751 2047.82,500.593 2051.78,1095.52 2055.74,1279.36 2059.7,798.056 2063.66,316.751 2067.63,500.593 2071.59,1095.52 2075.55,1279.36 2079.51,798.056 2083.47,316.751 2087.43,500.593 2091.4,1095.52 2095.36,1279.36 2099.32,798.056 2103.28,316.751 2107.24,500.593 2111.21,1095.52 2115.17,1279.36 2119.13,798.056 2123.09,316.751 2127.05,500.593 2131.01,1095.52 2134.98,1279.36 2138.94,798.056 2142.9,316.751 2146.86,500.593 2150.82,1095.52 2154.79,1279.36 2158.75,798.056 2162.71,316.751 2166.67,500.593 2170.63,1095.52 2174.59,1279.36 2178.56,798.056 2182.52,316.751 2186.48,500.593 2190.44,1095.52 2194.4,1279.36 2198.36,798.056 2202.33,316.751 2206.29,500.593 2210.25,1095.52 2214.21,1279.36 2218.17,798.056 2222.14,316.751 2226.1,500.593 2230.06,1095.52 2234.02,1279.36 2237.98,798.056 2241.94,316.751 2245.91,500.593 2249.87,1095.52 2253.83,1279.36 2257.79,798.056 2261.75,316.751 2265.72,500.593 2269.68,1095.52 2273.64,1279.36 2277.6,798.056 2281.56,316.751 2285.52,500.593 2289.49,1095.52 2293.45,1279.36 "/>
<polyline clip-path="url(#clip372)" style="stroke:#e26f46; stroke-linecap:round; stroke-linejoin:round; stroke-width:4; stroke-opacity:1; fill:none" points="316.512,816.444 320.474,304.011 324.436,516.534 328.397,1111.27 332.359,1238.05 336.321,773.929 340.283,360.251 344.245,574.95 348.206,1202.52 352.168,1277.14 356.13,839.824 360.092,274.226 364.054,478.635 368.015,1115.53 371.977,1253.19 375.939,724.816 379.901,321.462 383.863,564.995 387.824,1046.65 391.786,1284.25 395.748,868.036 399.71,390.762 403.672,434.755 407.633,980.828 411.595,1202.82 415.557,765.219 419.519,271.207 423.481,486.213 427.442,1039.67 431.404,1245.76 435.366,789.388 439.328,260.075 443.29,403.389 447.251,1055 451.213,1298.88 455.175,820.309 459.137,284.875 463.099,504.116 467.06,1134.94 471.022,1323.83 474.984,777.602 478.946,300.437 482.907,562.794 486.869,1103.88 490.831,1288.01 494.793,839.307 498.755,362.325 502.716,510.361 506.678,1146.04 510.64,1357.35 514.602,829.418 518.564,284.58 522.525,524.815 526.487,1045.18 530.449,1262.64 534.411,778.952 538.373,404.463 542.334,546.513 546.296,978.063 550.258,1278.15 554.22,736.047 558.182,250.74 562.143,522.861 566.105,1185.6 570.067,1230.86 574.029,857.431 577.991,289.345 581.952,608.14 585.914,1120.37 589.876,1306.91 593.838,851.246 597.8,352.983 601.761,453.528 605.723,1097.14 609.685,1324.48 613.647,751.761 617.609,397.501 621.57,523.571 625.532,1093.24 629.494,1319.46 633.456,779.167 637.418,387.837 641.379,563.082 645.341,1101.86 649.303,1319.12 653.265,818.709 657.226,404.14 661.188,472.401 665.15,1115.33 669.112,1292.05 673.074,746.343 677.035,316.799 680.997,576.544 684.959,1082.21 688.921,1333.06 692.883,745.605 696.844,280.139 700.806,457.366 704.768,1076.88 708.73,1281.72 712.692,711.609 716.653,368.93 720.615,507.902 724.577,1177.85 728.539,1282.51 732.501,787.206 736.462,239.35 740.424,486.708 744.386,1008.01 748.348,1323.82 752.31,819.719 756.271,330.553 760.233,542.86 764.195,1047.18 768.157,1216.41 772.119,767.228 776.08,333.998 780.042,594.842 784.004,1186.97 787.966,1294.65 791.928,771.561 795.889,300.731 799.851,512.59 803.813,1145.93 807.775,1269.3 811.736,791.117 815.698,310.715 819.66,507.959 823.622,1072.97 827.584,1294.61 831.545,756.625 835.507,302.431 839.469,535.311 843.431,1173.24 847.393,1322.3 851.354,770.063 855.316,372.609 859.278,427.64 863.24,1139.19 867.202,1300.04 871.163,793.262 875.125,333.33 879.087,423.636 883.049,1071.12 887.011,1261.75 890.972,743.411 894.934,280.315 898.896,521.038 902.858,1147.98 906.82,1332.28 910.781,790.116 914.743,341.569 918.705,488.364 922.667,1150.95 926.629,1299.72 930.59,869.239 934.552,364.434 938.514,475.514 942.476,1032.48 946.438,1361.76 950.399,754.355 954.361,273.503 958.323,544.742 962.285,1023.5 966.246,1324.85 970.208,767.933 974.17,270.617 978.132,517.052 982.094,1149.58 986.055,1158.32 990.017,806.362 993.979,271.444 997.941,519.946 1001.9,1101.65 1005.86,1252.04 1009.83,762.442 1013.79,455.822 1017.75,525.79 1021.71,1033.31 1025.67,1162.44 1029.64,783.681 1033.6,268.088 1037.56,491.077 1041.52,1032.34 1045.48,1260.69 1049.44,770.419 1053.41,298.036 1057.37,550.311 1061.33,1058.22 1065.29,1264.95 1069.25,902.123 1073.21,288.065 1077.18,464.264 1081.14,1151.88 1085.1,1320.21 1089.06,838.976 1093.02,225.682 1096.99,543.309 1100.95,1172.91 1104.91,1289.23 1108.87,828.486 1112.83,313.199 1116.79,590.919 1120.76,1103.93 1124.72,1367.69 1128.68,847.667 1132.64,257.598 1136.6,454.008 1140.57,1072.22 1144.53,1266.54 1148.49,762.856 1152.45,276.668 1156.41,493.682 1160.37,1062.24 1164.34,1273.21 1168.3,742.974 1172.26,379.045 1176.22,508.314 1180.18,1146.6 1184.15,1278.39 1188.11,786.482 1192.07,329.544 1196.03,568.968 1199.99,1083.3 1203.95,1312.33 1207.92,876.451 1211.88,268.496 1215.84,469.327 1219.8,1038.15 1223.76,1274.05 1227.72,756.539 1231.69,268.429 1235.65,499.922 1239.61,1109.68 1243.57,1380.28 1247.53,848.495 1251.5,362.238 1255.46,418.579 1259.42,1094.15 1263.38,1346.27 1267.34,803.722 1271.3,339.718 1275.27,478.34 1279.23,1066.89 1283.19,1348.31 1287.15,896.841 1291.11,369.747 1295.08,482.756 1299.04,1155.85 1303,1347.53 1306.96,838.792 1310.92,322.681 1314.88,513.697 1318.85,1090.24 1322.81,1318.22 1326.77,803.508 1330.73,313.617 1334.69,403.167 1338.66,1109.08 1342.62,1320.94 1346.58,734.061 1350.54,318.995 1354.5,522.796 1358.46,1117.15 1362.43,1274.83 1366.39,829.737 1370.35,324.335 1374.31,644.867 1378.27,1086.38 1382.23,1364.35 1386.2,803.27 1390.16,227.107 1394.12,456.339 1398.08,1099.03 1402.04,1313.88 1406.01,729.586 1409.97,310.833 1413.93,558.457 1417.89,1099.62 1421.85,1289.74 1425.81,822.005 1429.78,360.286 1433.74,500.688 1437.7,1186.87 1441.66,1359.26 1445.62,860.446 1449.59,307.806 1453.55,482.825 1457.51,1046.91 1461.47,1252.68 1465.43,808.351 1469.39,350.923 1473.36,442.131 1477.32,1100.23 1481.28,1253.58 1485.24,753.396 1489.2,291.584 1493.17,616.618 1497.13,1017.03 1501.09,1278.89 1505.05,777.94 1509.01,308.92 1512.97,454.04 1516.94,1123.53 1520.9,1253.85 1524.86,742.417 1528.82,323.909 1532.78,637.165 1536.74,1117.66 1540.71,1203.44 1544.67,842.811 1548.63,275.764 1552.59,474.263 1556.55,1111.3 1560.52,1320.76 1564.48,774.71 1568.44,387.826 1572.4,542.143 1576.36,1122.68 1580.32,1327.25 1584.29,796.564 1588.25,273.384 1592.21,533.639 1596.17,1080.27 1600.13,1240.7 1604.1,828.342 1608.06,306.683 1612.02,511.825 1615.98,1059.5 1619.94,1266.7 1623.9,806.803 1627.87,298.015 1631.83,484.095 1635.79,1125.14 1639.75,1268.87 1643.71,724.241 1647.68,290.005 1651.64,500.129 1655.6,1162.57 1659.56,1234.34 1663.52,808.572 1667.48,317.121 1671.45,492.189 1675.41,1055.07 1679.37,1272.58 1683.33,880.203 1687.29,434.928 1691.25,581.553 1695.22,1206.97 1699.18,1337.52 1703.14,724.936 1707.1,392.137 1711.06,506.079 1715.03,1193.54 1718.99,1284.28 1722.95,900.016 1726.91,246.789 1730.87,579.821 1734.83,1167.44 1738.8,1279.4 1742.76,800.188 1746.72,370.555 1750.68,481.744 1754.64,1047.23 1758.61,1265.89 1762.57,813.087 1766.53,353.452 1770.49,475.159 1774.45,1048.42 1778.41,1258.12 1782.38,778.617 1786.34,296.765 1790.3,413.903 1794.26,1100.23 1798.22,1365.17 1802.19,920.945 1806.15,346.817 1810.11,426.217 1814.07,1085.33 1818.03,1357 1821.99,827.625 1825.96,381.96 1829.92,507.125 1833.88,1061.42 1837.84,1172.68 1841.8,706.31 1845.76,266.083 1849.73,556.17 1853.69,1142.74 1857.65,1291.54 1861.61,773.161 1865.57,314.132 1869.54,528.762 1873.5,1156.14 1877.46,1334.77 1881.42,791.082 1885.38,272.561 1889.34,498.584 1893.31,1116.57 1897.27,1269.05 1901.23,677.433 1905.19,316.479 1909.15,470.022 1913.12,1028.52 1917.08,1320.06 1921.04,857.039 1925,363.544 1928.96,383.809 1932.92,1043.52 1936.89,1361.2 1940.85,789.139 1944.81,384.2 1948.77,429.869 1952.73,1167.58 1956.7,1243.6 1960.66,838.132 1964.62,348.101 1968.58,433.701 1972.54,1115.43 1976.5,1256.61 1980.47,751.437 1984.43,349.19 1988.39,473.557 1992.35,1090.78 1996.31,1241.45 2000.27,744.09 2004.24,216.684 2008.2,394.344 2012.16,1113.94 2016.12,1322.67 2020.08,800.924 2024.05,375.529 2028.01,548.987 2031.97,1074.51 2035.93,1345.94 2039.89,800.63 2043.85,264.451 2047.82,456.966 2051.78,990.21 2055.74,1386.4 2059.7,843.772 2063.66,330.145 2067.63,454.808 2071.59,1024.93 2075.55,1309.72 2079.51,795.48 2083.47,289.232 2087.43,528.767 2091.4,1030.47 2095.36,1276.34 2099.32,764.79 2103.28,367.78 2107.24,521.44 2111.21,1054.86 2115.17,1231.69 2119.13,774.325 2123.09,337.509 2127.05,477.713 2131.01,1087.83 2134.98,1286.83 2138.94,796.395 2142.9,336.07 2146.86,511.84 2150.82,1109.72 2154.79,1312.48 2158.75,844.676 2162.71,357.108 2166.67,590.073 2170.63,1016.61 2174.59,1212.39 2178.56,708.637 2182.52,160.256 2186.48,497.611 2190.44,1054.41 2194.4,1258.27 2198.36,729.396 2202.33,386.525 2206.29,478.068 2210.25,1171.37 2214.21,1229.38 2218.17,842.017 2222.14,432.644 2226.1,490.692 2230.06,1084.12 2234.02,1246.11 2237.98,789.45 2241.94,435.908 2245.91,469.621 2249.87,1018.46 2253.83,1253.64 2257.79,831.3 2261.75,242.308 2265.72,497.784 2269.68,1108.7 2273.64,1301.04 2277.6,681.797 2281.56,327.207 2285.52,516.319 2289.49,1097.57 2293.45,1274.06 "/>
<path clip-path="url(#clip370)" d="M1797.61 322.316 L2282.9 322.316 L2282.9 166.796 L1797.61 166.796  Z" fill="#ffffff" fill-rule="evenodd" fill-opacity="1"/>
<polyline clip-path="url(#clip370)" style="stroke:#000000; stroke-linecap:round; stroke-linejoin:round; stroke-width:4; stroke-opacity:1; fill:none" points="1797.61,322.316 2282.9,322.316 2282.9,166.796 1797.61,166.796 1797.61,322.316 "/>
<polyline clip-path="url(#clip370)" style="stroke:#009af9; stroke-linecap:round; stroke-linejoin:round; stroke-width:4; stroke-opacity:1; fill:none" points="1820.89,218.636 1960.6,218.636 "/>
<path clip-path="url(#clip370)" d="M2004.39 210.985 L2004.39 214.967 Q2002.58 213.971 2000.76 213.485 Q1998.95 212.976 1997.1 212.976 Q1992.96 212.976 1990.66 215.615 Q1988.37 218.231 1988.37 222.976 Q1988.37 227.721 1990.66 230.36 Q1992.96 232.976 1997.1 232.976 Q1998.95 232.976 2000.76 232.49 Q2002.58 231.981 2004.39 230.985 L2004.39 234.92 Q2002.61 235.754 2000.69 236.17 Q1998.79 236.587 1996.64 236.587 Q1990.78 236.587 1987.33 232.906 Q1983.88 229.226 1983.88 222.976 Q1983.88 216.633 1987.35 212.999 Q1990.85 209.365 1996.91 209.365 Q1998.88 209.365 2000.76 209.782 Q2002.63 210.175 2004.39 210.985 Z" fill="#000000" fill-rule="nonzero" fill-opacity="1" /><path clip-path="url(#clip370)" d="M2011.8 199.897 L2016.06 199.897 L2016.06 235.916 L2011.8 235.916 L2011.8 199.897 Z" fill="#000000" fill-rule="nonzero" fill-opacity="1" /><path clip-path="url(#clip370)" d="M2047.14 221.888 L2047.14 223.971 L2027.56 223.971 Q2027.84 228.369 2030.2 230.684 Q2032.58 232.976 2036.82 232.976 Q2039.27 232.976 2041.57 232.374 Q2043.88 231.772 2046.15 230.569 L2046.15 234.596 Q2043.86 235.568 2041.45 236.078 Q2039.04 236.587 2036.57 236.587 Q2030.36 236.587 2026.73 232.976 Q2023.12 229.365 2023.12 223.207 Q2023.12 216.842 2026.54 213.115 Q2029.99 209.365 2035.83 209.365 Q2041.06 209.365 2044.09 212.745 Q2047.14 216.101 2047.14 221.888 M2042.89 220.638 Q2042.84 217.143 2040.92 215.059 Q2039.02 212.976 2035.87 212.976 Q2032.31 212.976 2030.15 214.99 Q2028.02 217.004 2027.7 220.661 L2042.89 220.638 Z" fill="#000000" fill-rule="nonzero" fill-opacity="1" /><path clip-path="url(#clip370)" d="M2065.92 222.883 Q2060.76 222.883 2058.76 224.064 Q2056.77 225.244 2056.77 228.092 Q2056.77 230.36 2058.26 231.703 Q2059.76 233.022 2062.33 233.022 Q2065.87 233.022 2068 230.522 Q2070.15 227.999 2070.15 223.832 L2070.15 222.883 L2065.92 222.883 M2074.41 221.124 L2074.41 235.916 L2070.15 235.916 L2070.15 231.981 Q2068.7 234.342 2066.52 235.476 Q2064.34 236.587 2061.2 236.587 Q2057.21 236.587 2054.85 234.365 Q2052.51 232.119 2052.51 228.369 Q2052.51 223.994 2055.43 221.772 Q2058.37 219.55 2064.18 219.55 L2070.15 219.55 L2070.15 219.133 Q2070.15 216.194 2068.21 214.596 Q2066.29 212.976 2062.79 212.976 Q2060.57 212.976 2058.46 213.508 Q2056.36 214.041 2054.41 215.106 L2054.41 211.17 Q2056.75 210.268 2058.95 209.828 Q2061.15 209.365 2063.23 209.365 Q2068.86 209.365 2071.64 212.282 Q2074.41 215.198 2074.41 221.124 Z" fill="#000000" fill-rule="nonzero" fill-opacity="1" /><path clip-path="url(#clip370)" d="M2104.74 220.268 L2104.74 235.916 L2100.48 235.916 L2100.48 220.407 Q2100.48 216.726 2099.04 214.897 Q2097.61 213.069 2094.74 213.069 Q2091.29 213.069 2089.3 215.268 Q2087.31 217.467 2087.31 221.263 L2087.31 235.916 L2083.02 235.916 L2083.02 209.99 L2087.31 209.99 L2087.31 214.018 Q2088.83 211.68 2090.89 210.522 Q2092.98 209.365 2095.69 209.365 Q2100.15 209.365 2102.45 212.143 Q2104.74 214.897 2104.74 220.268 Z" fill="#000000" fill-rule="nonzero" fill-opacity="1" /><path clip-path="url(#clip370)" d="M2144.83 210.754 L2144.83 214.782 Q2143.02 213.856 2141.08 213.393 Q2139.13 212.93 2137.05 212.93 Q2133.88 212.93 2132.28 213.902 Q2130.71 214.874 2130.71 216.819 Q2130.71 218.3 2131.84 219.157 Q2132.98 219.99 2136.4 220.754 L2137.86 221.078 Q2142.4 222.05 2144.3 223.832 Q2146.22 225.592 2146.22 228.763 Q2146.22 232.374 2143.35 234.481 Q2140.5 236.587 2135.5 236.587 Q2133.42 236.587 2131.15 236.17 Q2128.9 235.777 2126.4 234.967 L2126.4 230.569 Q2128.76 231.795 2131.06 232.42 Q2133.35 233.022 2135.59 233.022 Q2138.6 233.022 2140.22 232.004 Q2141.84 230.962 2141.84 229.087 Q2141.84 227.351 2140.66 226.425 Q2139.51 225.499 2135.55 224.643 L2134.07 224.295 Q2130.11 223.462 2128.35 221.749 Q2126.59 220.013 2126.59 217.004 Q2126.59 213.346 2129.18 211.356 Q2131.77 209.365 2136.54 209.365 Q2138.9 209.365 2140.99 209.712 Q2143.07 210.059 2144.83 210.754 Z" fill="#000000" fill-rule="nonzero" fill-opacity="1" /><path clip-path="url(#clip370)" d="M2153 209.99 L2157.26 209.99 L2157.26 235.916 L2153 235.916 L2153 209.99 M2153 199.897 L2157.26 199.897 L2157.26 205.291 L2153 205.291 L2153 199.897 Z" fill="#000000" fill-rule="nonzero" fill-opacity="1" /><path clip-path="url(#clip370)" d="M2183.23 222.652 Q2183.23 218.022 2181.31 215.476 Q2179.41 212.93 2175.96 212.93 Q2172.54 212.93 2170.62 215.476 Q2168.72 218.022 2168.72 222.652 Q2168.72 227.258 2170.62 229.805 Q2172.54 232.351 2175.96 232.351 Q2179.41 232.351 2181.31 229.805 Q2183.23 227.258 2183.23 222.652 M2187.49 232.698 Q2187.49 239.318 2184.55 242.536 Q2181.61 245.777 2175.55 245.777 Q2173.3 245.777 2171.31 245.43 Q2169.32 245.105 2167.44 244.411 L2167.44 240.268 Q2169.32 241.286 2171.15 241.772 Q2172.98 242.258 2174.88 242.258 Q2179.07 242.258 2181.15 240.059 Q2183.23 237.883 2183.23 233.462 L2183.23 231.356 Q2181.91 233.647 2179.85 234.781 Q2177.79 235.916 2174.92 235.916 Q2170.15 235.916 2167.24 232.281 Q2164.32 228.647 2164.32 222.652 Q2164.32 216.633 2167.24 212.999 Q2170.15 209.365 2174.92 209.365 Q2177.79 209.365 2179.85 210.499 Q2181.91 211.633 2183.23 213.925 L2183.23 209.99 L2187.49 209.99 L2187.49 232.698 Z" fill="#000000" fill-rule="nonzero" fill-opacity="1" /><path clip-path="url(#clip370)" d="M2217.81 220.268 L2217.81 235.916 L2213.56 235.916 L2213.56 220.407 Q2213.56 216.726 2212.12 214.897 Q2210.69 213.069 2207.81 213.069 Q2204.37 213.069 2202.38 215.268 Q2200.38 217.467 2200.38 221.263 L2200.38 235.916 L2196.1 235.916 L2196.1 209.99 L2200.38 209.99 L2200.38 214.018 Q2201.91 211.68 2203.97 210.522 Q2206.06 209.365 2208.76 209.365 Q2213.23 209.365 2215.52 212.143 Q2217.81 214.897 2217.81 220.268 Z" fill="#000000" fill-rule="nonzero" fill-opacity="1" /><path clip-path="url(#clip370)" d="M2238.09 222.883 Q2232.93 222.883 2230.94 224.064 Q2228.95 225.244 2228.95 228.092 Q2228.95 230.36 2230.43 231.703 Q2231.94 233.022 2234.5 233.022 Q2238.05 233.022 2240.18 230.522 Q2242.33 227.999 2242.33 223.832 L2242.33 222.883 L2238.09 222.883 M2246.59 221.124 L2246.59 235.916 L2242.33 235.916 L2242.33 231.981 Q2240.87 234.342 2238.69 235.476 Q2236.52 236.587 2233.37 236.587 Q2229.39 236.587 2227.03 234.365 Q2224.69 232.119 2224.69 228.369 Q2224.69 223.994 2227.61 221.772 Q2230.55 219.55 2236.36 219.55 L2242.33 219.55 L2242.33 219.133 Q2242.33 216.194 2240.38 214.596 Q2238.46 212.976 2234.97 212.976 Q2232.75 212.976 2230.64 213.508 Q2228.53 214.041 2226.59 215.106 L2226.59 211.17 Q2228.93 210.268 2231.13 209.828 Q2233.32 209.365 2235.41 209.365 Q2241.03 209.365 2243.81 212.282 Q2246.59 215.198 2246.59 221.124 Z" fill="#000000" fill-rule="nonzero" fill-opacity="1" /><path clip-path="url(#clip370)" d="M2255.36 199.897 L2259.62 199.897 L2259.62 235.916 L2255.36 235.916 L2255.36 199.897 Z" fill="#000000" fill-rule="nonzero" fill-opacity="1" /><polyline clip-path="url(#clip370)" style="stroke:#e26f46; stroke-linecap:round; stroke-linejoin:round; stroke-width:4; stroke-opacity:1; fill:none" points="1820.89,270.476 1960.6,270.476 "/>
<path clip-path="url(#clip370)" d="M2005.59 272.108 L2005.59 287.756 L2001.33 287.756 L2001.33 272.247 Q2001.33 268.566 1999.9 266.737 Q1998.46 264.909 1995.59 264.909 Q1992.14 264.909 1990.15 267.108 Q1988.16 269.307 1988.16 273.103 L1988.16 287.756 L1983.88 287.756 L1983.88 261.83 L1988.16 261.83 L1988.16 265.858 Q1989.69 263.52 1991.75 262.362 Q1993.83 261.205 1996.54 261.205 Q2001.01 261.205 2003.3 263.983 Q2005.59 266.737 2005.59 272.108 Z" fill="#000000" fill-rule="nonzero" fill-opacity="1" /><path clip-path="url(#clip370)" d="M2024.14 264.816 Q2020.71 264.816 2018.72 267.501 Q2016.73 270.163 2016.73 274.816 Q2016.73 279.469 2018.7 282.154 Q2020.69 284.816 2024.14 284.816 Q2027.54 284.816 2029.53 282.131 Q2031.52 279.446 2031.52 274.816 Q2031.52 270.21 2029.53 267.524 Q2027.54 264.816 2024.14 264.816 M2024.14 261.205 Q2029.69 261.205 2032.86 264.816 Q2036.03 268.427 2036.03 274.816 Q2036.03 281.182 2032.86 284.816 Q2029.69 288.427 2024.14 288.427 Q2018.56 288.427 2015.39 284.816 Q2012.24 281.182 2012.24 274.816 Q2012.24 268.427 2015.39 264.816 Q2018.56 261.205 2024.14 261.205 Z" fill="#000000" fill-rule="nonzero" fill-opacity="1" /><path clip-path="url(#clip370)" d="M2043.09 261.83 L2047.35 261.83 L2047.35 287.756 L2043.09 287.756 L2043.09 261.83 M2043.09 251.737 L2047.35 251.737 L2047.35 257.131 L2043.09 257.131 L2043.09 251.737 Z" fill="#000000" fill-rule="nonzero" fill-opacity="1" /><path clip-path="url(#clip370)" d="M2072.79 262.594 L2072.79 266.622 Q2070.99 265.696 2069.04 265.233 Q2067.1 264.77 2065.01 264.77 Q2061.84 264.77 2060.25 265.742 Q2058.67 266.714 2058.67 268.659 Q2058.67 270.14 2059.81 270.997 Q2060.94 271.83 2064.37 272.594 L2065.83 272.918 Q2070.36 273.89 2072.26 275.672 Q2074.18 277.432 2074.18 280.603 Q2074.18 284.214 2071.31 286.321 Q2068.46 288.427 2063.46 288.427 Q2061.38 288.427 2059.11 288.01 Q2056.87 287.617 2054.37 286.807 L2054.37 282.409 Q2056.73 283.635 2059.02 284.26 Q2061.31 284.862 2063.56 284.862 Q2066.57 284.862 2068.19 283.844 Q2069.81 282.802 2069.81 280.927 Q2069.81 279.191 2068.63 278.265 Q2067.47 277.339 2063.51 276.483 L2062.03 276.135 Q2058.07 275.302 2056.31 273.589 Q2054.55 271.853 2054.55 268.844 Q2054.55 265.186 2057.14 263.196 Q2059.74 261.205 2064.51 261.205 Q2066.87 261.205 2068.95 261.552 Q2071.03 261.899 2072.79 262.594 Z" fill="#000000" fill-rule="nonzero" fill-opacity="1" /><path clip-path="url(#clip370)" d="M2091.75 290.163 Q2089.95 294.793 2088.23 296.205 Q2086.52 297.617 2083.65 297.617 L2080.25 297.617 L2080.25 294.052 L2082.75 294.052 Q2084.51 294.052 2085.48 293.219 Q2086.45 292.385 2087.63 289.283 L2088.39 287.339 L2077.91 261.83 L2082.42 261.83 L2090.52 282.108 L2098.63 261.83 L2103.14 261.83 L2091.75 290.163 Z" fill="#000000" fill-rule="nonzero" fill-opacity="1" /><path clip-path="url(#clip370)" d="M2140.62 262.594 L2140.62 266.622 Q2138.81 265.696 2136.87 265.233 Q2134.92 264.77 2132.84 264.77 Q2129.67 264.77 2128.07 265.742 Q2126.5 266.714 2126.5 268.659 Q2126.5 270.14 2127.63 270.997 Q2128.76 271.83 2132.19 272.594 L2133.65 272.918 Q2138.19 273.89 2140.08 275.672 Q2142.01 277.432 2142.01 280.603 Q2142.01 284.214 2139.13 286.321 Q2136.29 288.427 2131.29 288.427 Q2129.2 288.427 2126.94 288.01 Q2124.69 287.617 2122.19 286.807 L2122.19 282.409 Q2124.55 283.635 2126.84 284.26 Q2129.13 284.862 2131.38 284.862 Q2134.39 284.862 2136.01 283.844 Q2137.63 282.802 2137.63 280.927 Q2137.63 279.191 2136.45 278.265 Q2135.29 277.339 2131.33 276.483 L2129.85 276.135 Q2125.89 275.302 2124.13 273.589 Q2122.38 271.853 2122.38 268.844 Q2122.38 265.186 2124.97 263.196 Q2127.56 261.205 2132.33 261.205 Q2134.69 261.205 2136.77 261.552 Q2138.86 261.899 2140.62 262.594 Z" fill="#000000" fill-rule="nonzero" fill-opacity="1" /><path clip-path="url(#clip370)" d="M2148.79 261.83 L2153.05 261.83 L2153.05 287.756 L2148.79 287.756 L2148.79 261.83 M2148.79 251.737 L2153.05 251.737 L2153.05 257.131 L2148.79 257.131 L2148.79 251.737 Z" fill="#000000" fill-rule="nonzero" fill-opacity="1" /><path clip-path="url(#clip370)" d="M2179.02 274.492 Q2179.02 269.862 2177.1 267.316 Q2175.2 264.77 2171.75 264.77 Q2168.32 264.77 2166.4 267.316 Q2164.51 269.862 2164.51 274.492 Q2164.51 279.098 2166.4 281.645 Q2168.32 284.191 2171.75 284.191 Q2175.2 284.191 2177.1 281.645 Q2179.02 279.098 2179.02 274.492 M2183.28 284.538 Q2183.28 291.158 2180.34 294.376 Q2177.4 297.617 2171.33 297.617 Q2169.09 297.617 2167.1 297.27 Q2165.11 296.945 2163.23 296.251 L2163.23 292.108 Q2165.11 293.126 2166.94 293.612 Q2168.76 294.098 2170.66 294.098 Q2174.85 294.098 2176.94 291.899 Q2179.02 289.723 2179.02 285.302 L2179.02 283.196 Q2177.7 285.487 2175.64 286.621 Q2173.58 287.756 2170.71 287.756 Q2165.94 287.756 2163.02 284.121 Q2160.11 280.487 2160.11 274.492 Q2160.11 268.473 2163.02 264.839 Q2165.94 261.205 2170.71 261.205 Q2173.58 261.205 2175.64 262.339 Q2177.7 263.473 2179.02 265.765 L2179.02 261.83 L2183.28 261.83 L2183.28 284.538 Z" fill="#000000" fill-rule="nonzero" fill-opacity="1" /><path clip-path="url(#clip370)" d="M2213.6 272.108 L2213.6 287.756 L2209.34 287.756 L2209.34 272.247 Q2209.34 268.566 2207.91 266.737 Q2206.47 264.909 2203.6 264.909 Q2200.15 264.909 2198.16 267.108 Q2196.17 269.307 2196.17 273.103 L2196.17 287.756 L2191.89 287.756 L2191.89 261.83 L2196.17 261.83 L2196.17 265.858 Q2197.7 263.52 2199.76 262.362 Q2201.84 261.205 2204.55 261.205 Q2209.02 261.205 2211.31 263.983 Q2213.6 266.737 2213.6 272.108 Z" fill="#000000" fill-rule="nonzero" fill-opacity="1" /><path clip-path="url(#clip370)" d="M2233.88 274.723 Q2228.72 274.723 2226.73 275.904 Q2224.74 277.084 2224.74 279.932 Q2224.74 282.2 2226.22 283.543 Q2227.72 284.862 2230.29 284.862 Q2233.83 284.862 2235.96 282.362 Q2238.12 279.839 2238.12 275.672 L2238.12 274.723 L2233.88 274.723 M2242.37 272.964 L2242.37 287.756 L2238.12 287.756 L2238.12 283.821 Q2236.66 286.182 2234.48 287.316 Q2232.31 288.427 2229.16 288.427 Q2225.18 288.427 2222.81 286.205 Q2220.48 283.959 2220.48 280.209 Q2220.48 275.834 2223.39 273.612 Q2226.33 271.39 2232.14 271.39 L2238.12 271.39 L2238.12 270.973 Q2238.12 268.034 2236.17 266.436 Q2234.25 264.816 2230.75 264.816 Q2228.53 264.816 2226.43 265.348 Q2224.32 265.881 2222.38 266.946 L2222.38 263.01 Q2224.71 262.108 2226.91 261.668 Q2229.11 261.205 2231.19 261.205 Q2236.82 261.205 2239.6 264.122 Q2242.37 267.038 2242.37 272.964 Z" fill="#000000" fill-rule="nonzero" fill-opacity="1" /><path clip-path="url(#clip370)" d="M2251.15 251.737 L2255.41 251.737 L2255.41 287.756 L2251.15 287.756 L2251.15 251.737 Z" fill="#000000" fill-rule="nonzero" fill-opacity="1" /></svg>
