<?xml version="1.0" encoding="utf-8"?>
<svg xmlns="http://www.w3.org/2000/svg" xmlns:xlink="http://www.w3.org/1999/xlink" width="600" height="400" viewBox="0 0 2400 1600">
<defs>
  <clipPath id="clip610">
    <rect x="0" y="0" width="2400" height="1600"/>
  </clipPath>
</defs>
<path clip-path="url(#clip610)" d="M0 1600 L2400 1600 L2400 0 L0 0  Z" fill="#ffffff" fill-rule="evenodd" fill-opacity="1"/>
<defs>
  <clipPath id="clip611">
    <rect x="480" y="0" width="1681" height="1600"/>
  </clipPath>
</defs>
<path clip-path="url(#clip610)" d="M255.977 1423.18 L2352.76 1423.18 L2352.76 123.472 L255.977 123.472  Z" fill="#ffffff" fill-rule="evenodd" fill-opacity="1"/>
<defs>
  <clipPath id="clip612">
    <rect x="255" y="123" width="2098" height="1301"/>
  </clipPath>
</defs>
<polyline clip-path="url(#clip612)" style="stroke:#000000; stroke-linecap:round; stroke-linejoin:round; stroke-width:2; stroke-opacity:0.1; fill:none" points="295.339,1423.18 295.339,123.472 "/>
<polyline clip-path="url(#clip612)" style="stroke:#000000; stroke-linecap:round; stroke-linejoin:round; stroke-width:2; stroke-opacity:0.1; fill:none" points="794.858,1423.18 794.858,123.472 "/>
<polyline clip-path="url(#clip612)" style="stroke:#000000; stroke-linecap:round; stroke-linejoin:round; stroke-width:2; stroke-opacity:0.1; fill:none" points="1294.38,1423.18 1294.38,123.472 "/>
<polyline clip-path="url(#clip612)" style="stroke:#000000; stroke-linecap:round; stroke-linejoin:round; stroke-width:2; stroke-opacity:0.1; fill:none" points="1793.89,1423.18 1793.89,123.472 "/>
<polyline clip-path="url(#clip612)" style="stroke:#000000; stroke-linecap:round; stroke-linejoin:round; stroke-width:2; stroke-opacity:0.1; fill:none" points="2293.41,1423.18 2293.41,123.472 "/>
<polyline clip-path="url(#clip610)" style="stroke:#000000; stroke-linecap:round; stroke-linejoin:round; stroke-width:4; stroke-opacity:1; fill:none" points="255.977,1423.18 2352.76,1423.18 "/>
<polyline clip-path="url(#clip610)" style="stroke:#000000; stroke-linecap:round; stroke-linejoin:round; stroke-width:4; stroke-opacity:1; fill:none" points="295.339,1423.18 295.339,1404.28 "/>
<polyline clip-path="url(#clip610)" style="stroke:#000000; stroke-linecap:round; stroke-linejoin:round; stroke-width:4; stroke-opacity:1; fill:none" points="794.858,1423.18 794.858,1404.28 "/>
<polyline clip-path="url(#clip610)" style="stroke:#000000; stroke-linecap:round; stroke-linejoin:round; stroke-width:4; stroke-opacity:1; fill:none" points="1294.38,1423.18 1294.38,1404.28 "/>
<polyline clip-path="url(#clip610)" style="stroke:#000000; stroke-linecap:round; stroke-linejoin:round; stroke-width:4; stroke-opacity:1; fill:none" points="1793.89,1423.18 1793.89,1404.28 "/>
<polyline clip-path="url(#clip610)" style="stroke:#000000; stroke-linecap:round; stroke-linejoin:round; stroke-width:4; stroke-opacity:1; fill:none" points="2293.41,1423.18 2293.41,1404.28 "/>
<path clip-path="url(#clip610)" d="M295.339 1454.1 Q291.728 1454.1 289.899 1457.66 Q288.094 1461.2 288.094 1468.33 Q288.094 1475.44 289.899 1479.01 Q291.728 1482.55 295.339 1482.55 Q298.973 1482.55 300.779 1479.01 Q302.608 1475.44 302.608 1468.33 Q302.608 1461.2 300.779 1457.66 Q298.973 1454.1 295.339 1454.1 M295.339 1450.39 Q301.149 1450.39 304.205 1455 Q307.284 1459.58 307.284 1468.33 Q307.284 1477.06 304.205 1481.67 Q301.149 1486.25 295.339 1486.25 Q289.529 1486.25 286.45 1481.67 Q283.395 1477.06 283.395 1468.33 Q283.395 1459.58 286.45 1455 Q289.529 1450.39 295.339 1450.39 Z" fill="#000000" fill-rule="nonzero" fill-opacity="1" /><path clip-path="url(#clip610)" d="M774.129 1481.64 L790.448 1481.64 L790.448 1485.58 L768.504 1485.58 L768.504 1481.64 Q771.166 1478.89 775.749 1474.26 Q780.355 1469.61 781.536 1468.27 Q783.781 1465.74 784.661 1464.01 Q785.564 1462.25 785.564 1460.56 Q785.564 1457.8 783.619 1456.07 Q781.698 1454.33 778.596 1454.33 Q776.397 1454.33 773.943 1455.09 Q771.513 1455.86 768.735 1457.41 L768.735 1452.69 Q771.559 1451.55 774.013 1450.97 Q776.467 1450.39 778.504 1450.39 Q783.874 1450.39 787.068 1453.08 Q790.263 1455.77 790.263 1460.26 Q790.263 1462.39 789.453 1464.31 Q788.666 1466.2 786.559 1468.8 Q785.98 1469.47 782.879 1472.69 Q779.777 1475.88 774.129 1481.64 Z" fill="#000000" fill-rule="nonzero" fill-opacity="1" /><path clip-path="url(#clip610)" d="M800.309 1451.02 L818.665 1451.02 L818.665 1454.96 L804.591 1454.96 L804.591 1463.43 Q805.61 1463.08 806.628 1462.92 Q807.647 1462.73 808.666 1462.73 Q814.453 1462.73 817.832 1465.9 Q821.212 1469.08 821.212 1474.49 Q821.212 1480.07 817.74 1483.17 Q814.267 1486.25 807.948 1486.25 Q805.772 1486.25 803.503 1485.88 Q801.258 1485.51 798.851 1484.77 L798.851 1480.07 Q800.934 1481.2 803.156 1481.76 Q805.378 1482.32 807.855 1482.32 Q811.86 1482.32 814.198 1480.21 Q816.536 1478.1 816.536 1474.49 Q816.536 1470.88 814.198 1468.77 Q811.86 1466.67 807.855 1466.67 Q805.98 1466.67 804.105 1467.08 Q802.254 1467.5 800.309 1468.38 L800.309 1451.02 Z" fill="#000000" fill-rule="nonzero" fill-opacity="1" /><path clip-path="url(#clip610)" d="M1269.08 1451.02 L1287.43 1451.02 L1287.43 1454.96 L1273.36 1454.96 L1273.36 1463.43 Q1274.38 1463.08 1275.39 1462.92 Q1276.41 1462.73 1277.43 1462.73 Q1283.22 1462.73 1286.6 1465.9 Q1289.98 1469.08 1289.98 1474.49 Q1289.98 1480.07 1286.51 1483.17 Q1283.03 1486.25 1276.71 1486.25 Q1274.54 1486.25 1272.27 1485.88 Q1270.02 1485.51 1267.62 1484.77 L1267.62 1480.07 Q1269.7 1481.2 1271.92 1481.76 Q1274.14 1482.32 1276.62 1482.32 Q1280.63 1482.32 1282.96 1480.21 Q1285.3 1478.1 1285.3 1474.49 Q1285.3 1470.88 1282.96 1468.77 Q1280.63 1466.67 1276.62 1466.67 Q1274.75 1466.67 1272.87 1467.08 Q1271.02 1467.5 1269.08 1468.38 L1269.08 1451.02 Z" fill="#000000" fill-rule="nonzero" fill-opacity="1" /><path clip-path="url(#clip610)" d="M1309.19 1454.1 Q1305.58 1454.1 1303.75 1457.66 Q1301.95 1461.2 1301.95 1468.33 Q1301.95 1475.44 1303.75 1479.01 Q1305.58 1482.55 1309.19 1482.55 Q1312.83 1482.55 1314.63 1479.01 Q1316.46 1475.44 1316.46 1468.33 Q1316.46 1461.2 1314.63 1457.66 Q1312.83 1454.1 1309.19 1454.1 M1309.19 1450.39 Q1315 1450.39 1318.06 1455 Q1321.14 1459.58 1321.14 1468.33 Q1321.14 1477.06 1318.06 1481.67 Q1315 1486.25 1309.19 1486.25 Q1303.38 1486.25 1300.3 1481.67 Q1297.25 1477.06 1297.25 1468.33 Q1297.25 1459.58 1300.3 1455 Q1303.38 1450.39 1309.19 1450.39 Z" fill="#000000" fill-rule="nonzero" fill-opacity="1" /><path clip-path="url(#clip610)" d="M1767.75 1451.02 L1789.97 1451.02 L1789.97 1453.01 L1777.42 1485.58 L1772.54 1485.58 L1784.35 1454.96 L1767.75 1454.96 L1767.75 1451.02 Z" fill="#000000" fill-rule="nonzero" fill-opacity="1" /><path clip-path="url(#clip610)" d="M1799.14 1451.02 L1817.49 1451.02 L1817.49 1454.96 L1803.42 1454.96 L1803.42 1463.43 Q1804.44 1463.08 1805.46 1462.92 Q1806.48 1462.73 1807.49 1462.73 Q1813.28 1462.73 1816.66 1465.9 Q1820.04 1469.08 1820.04 1474.49 Q1820.04 1480.07 1816.57 1483.17 Q1813.1 1486.25 1806.78 1486.25 Q1804.6 1486.25 1802.33 1485.88 Q1800.09 1485.51 1797.68 1484.77 L1797.68 1480.07 Q1799.76 1481.2 1801.98 1481.76 Q1804.21 1482.32 1806.68 1482.32 Q1810.69 1482.32 1813.03 1480.21 Q1815.36 1478.1 1815.36 1474.49 Q1815.36 1470.88 1813.03 1468.77 Q1810.69 1466.67 1806.68 1466.67 Q1804.81 1466.67 1802.93 1467.08 Q1801.08 1467.5 1799.14 1468.38 L1799.14 1451.02 Z" fill="#000000" fill-rule="nonzero" fill-opacity="1" /><path clip-path="url(#clip610)" d="M2253.02 1481.64 L2260.66 1481.64 L2260.66 1455.28 L2252.35 1456.95 L2252.35 1452.69 L2260.61 1451.02 L2265.29 1451.02 L2265.29 1481.64 L2272.93 1481.64 L2272.93 1485.58 L2253.02 1485.58 L2253.02 1481.64 Z" fill="#000000" fill-rule="nonzero" fill-opacity="1" /><path clip-path="url(#clip610)" d="M2292.37 1454.1 Q2288.76 1454.1 2286.93 1457.66 Q2285.13 1461.2 2285.13 1468.33 Q2285.13 1475.44 2286.93 1479.01 Q2288.76 1482.55 2292.37 1482.55 Q2296.01 1482.55 2297.81 1479.01 Q2299.64 1475.44 2299.64 1468.33 Q2299.64 1461.2 2297.81 1457.66 Q2296.01 1454.1 2292.37 1454.1 M2292.37 1450.39 Q2298.18 1450.39 2301.24 1455 Q2304.32 1459.58 2304.32 1468.33 Q2304.32 1477.06 2301.24 1481.67 Q2298.18 1486.25 2292.37 1486.25 Q2286.56 1486.25 2283.48 1481.67 Q2280.43 1477.06 2280.43 1468.33 Q2280.43 1459.58 2283.48 1455 Q2286.56 1450.39 2292.37 1450.39 Z" fill="#000000" fill-rule="nonzero" fill-opacity="1" /><path clip-path="url(#clip610)" d="M2322.53 1454.1 Q2318.92 1454.1 2317.09 1457.66 Q2315.29 1461.2 2315.29 1468.33 Q2315.29 1475.44 2317.09 1479.01 Q2318.92 1482.55 2322.53 1482.55 Q2326.17 1482.55 2327.97 1479.01 Q2329.8 1475.44 2329.8 1468.33 Q2329.8 1461.2 2327.97 1457.66 Q2326.17 1454.1 2322.53 1454.1 M2322.53 1450.39 Q2328.34 1450.39 2331.4 1455 Q2334.48 1459.58 2334.48 1468.33 Q2334.48 1477.06 2331.4 1481.67 Q2328.34 1486.25 2322.53 1486.25 Q2316.72 1486.25 2313.64 1481.67 Q2310.59 1477.06 2310.59 1468.33 Q2310.59 1459.58 2313.64 1455 Q2316.72 1450.39 2322.53 1450.39 Z" fill="#000000" fill-rule="nonzero" fill-opacity="1" /><path clip-path="url(#clip610)" d="M1312.84 1531.91 Q1312.84 1532.81 1312.42 1533.04 Q1312 1533.23 1310.84 1533.23 L1304.66 1533.23 L1299.76 1552.69 Q1299.38 1554.39 1299.38 1555.84 Q1299.38 1557.45 1299.86 1558.16 Q1300.37 1558.87 1301.44 1558.87 Q1303.53 1558.87 1305.78 1556.97 Q1308.07 1555.07 1310 1550.43 Q1310.26 1549.82 1310.39 1549.69 Q1310.55 1549.53 1310.97 1549.53 Q1311.77 1549.53 1311.77 1550.17 Q1311.77 1550.4 1311.32 1551.43 Q1310.91 1552.46 1309.97 1553.97 Q1309.07 1555.49 1307.88 1556.9 Q1306.72 1558.32 1304.95 1559.35 Q1303.18 1560.35 1301.28 1560.35 Q1298.6 1560.35 1296.9 1558.64 Q1295.22 1556.94 1295.22 1554.26 Q1295.22 1553.39 1295.9 1550.62 Q1296.57 1547.82 1300.25 1533.23 L1294.42 1533.23 Q1293.61 1533.23 1293.29 1533.2 Q1293 1533.17 1292.77 1533.01 Q1292.58 1532.81 1292.58 1532.43 Q1292.58 1531.82 1292.84 1531.56 Q1293.1 1531.27 1293.42 1531.24 Q1293.77 1531.17 1294.58 1531.17 L1300.76 1531.17 L1303.34 1520.71 Q1303.59 1519.67 1304.24 1519.09 Q1304.91 1518.48 1305.3 1518.42 Q1305.69 1518.32 1305.98 1518.32 Q1306.85 1518.32 1307.36 1518.81 Q1307.88 1519.26 1307.88 1520.09 Q1307.88 1520.54 1305.17 1531.17 L1310.97 1531.17 Q1311.71 1531.17 1312 1531.2 Q1312.32 1531.24 1312.58 1531.4 Q1312.84 1531.56 1312.84 1531.91 Z" fill="#000000" fill-rule="nonzero" fill-opacity="1" /><polyline clip-path="url(#clip612)" style="stroke:#000000; stroke-linecap:round; stroke-linejoin:round; stroke-width:2; stroke-opacity:0.1; fill:none" points="255.977,1308.85 2352.76,1308.85 "/>
<polyline clip-path="url(#clip612)" style="stroke:#000000; stroke-linecap:round; stroke-linejoin:round; stroke-width:2; stroke-opacity:0.1; fill:none" points="255.977,1091.92 2352.76,1091.92 "/>
<polyline clip-path="url(#clip612)" style="stroke:#000000; stroke-linecap:round; stroke-linejoin:round; stroke-width:2; stroke-opacity:0.1; fill:none" points="255.977,874.985 2352.76,874.985 "/>
<polyline clip-path="url(#clip612)" style="stroke:#000000; stroke-linecap:round; stroke-linejoin:round; stroke-width:2; stroke-opacity:0.1; fill:none" points="255.977,658.052 2352.76,658.052 "/>
<polyline clip-path="url(#clip612)" style="stroke:#000000; stroke-linecap:round; stroke-linejoin:round; stroke-width:2; stroke-opacity:0.1; fill:none" points="255.977,441.118 2352.76,441.118 "/>
<polyline clip-path="url(#clip612)" style="stroke:#000000; stroke-linecap:round; stroke-linejoin:round; stroke-width:2; stroke-opacity:0.1; fill:none" points="255.977,224.185 2352.76,224.185 "/>
<polyline clip-path="url(#clip610)" style="stroke:#000000; stroke-linecap:round; stroke-linejoin:round; stroke-width:4; stroke-opacity:1; fill:none" points="255.977,1423.18 255.977,123.472 "/>
<polyline clip-path="url(#clip610)" style="stroke:#000000; stroke-linecap:round; stroke-linejoin:round; stroke-width:4; stroke-opacity:1; fill:none" points="255.977,1308.85 274.875,1308.85 "/>
<polyline clip-path="url(#clip610)" style="stroke:#000000; stroke-linecap:round; stroke-linejoin:round; stroke-width:4; stroke-opacity:1; fill:none" points="255.977,1091.92 274.875,1091.92 "/>
<polyline clip-path="url(#clip610)" style="stroke:#000000; stroke-linecap:round; stroke-linejoin:round; stroke-width:4; stroke-opacity:1; fill:none" points="255.977,874.985 274.875,874.985 "/>
<polyline clip-path="url(#clip610)" style="stroke:#000000; stroke-linecap:round; stroke-linejoin:round; stroke-width:4; stroke-opacity:1; fill:none" points="255.977,658.052 274.875,658.052 "/>
<polyline clip-path="url(#clip610)" style="stroke:#000000; stroke-linecap:round; stroke-linejoin:round; stroke-width:4; stroke-opacity:1; fill:none" points="255.977,441.118 274.875,441.118 "/>
<polyline clip-path="url(#clip610)" style="stroke:#000000; stroke-linecap:round; stroke-linejoin:round; stroke-width:4; stroke-opacity:1; fill:none" points="255.977,224.185 274.875,224.185 "/>
<path clip-path="url(#clip610)" d="M114.631 1309.3 L144.306 1309.3 L144.306 1313.24 L114.631 1313.24 L114.631 1309.3 Z" fill="#000000" fill-rule="nonzero" fill-opacity="1" /><path clip-path="url(#clip610)" d="M164.399 1294.65 Q160.788 1294.65 158.959 1298.22 Q157.153 1301.76 157.153 1308.89 Q157.153 1315.99 158.959 1319.56 Q160.788 1323.1 164.399 1323.1 Q168.033 1323.1 169.839 1319.56 Q171.667 1315.99 171.667 1308.89 Q171.667 1301.76 169.839 1298.22 Q168.033 1294.65 164.399 1294.65 M164.399 1290.95 Q170.209 1290.95 173.264 1295.55 Q176.343 1300.14 176.343 1308.89 Q176.343 1317.61 173.264 1322.22 Q170.209 1326.8 164.399 1326.8 Q158.589 1326.8 155.51 1322.22 Q152.454 1317.61 152.454 1308.89 Q152.454 1300.14 155.51 1295.55 Q158.589 1290.95 164.399 1290.95 Z" fill="#000000" fill-rule="nonzero" fill-opacity="1" /><path clip-path="url(#clip610)" d="M184.561 1320.25 L189.445 1320.25 L189.445 1326.13 L184.561 1326.13 L184.561 1320.25 Z" fill="#000000" fill-rule="nonzero" fill-opacity="1" /><path clip-path="url(#clip610)" d="M203.658 1322.2 L219.977 1322.2 L219.977 1326.13 L198.033 1326.13 L198.033 1322.2 Q200.695 1319.44 205.278 1314.81 Q209.885 1310.16 211.065 1308.82 Q213.311 1306.29 214.19 1304.56 Q215.093 1302.8 215.093 1301.11 Q215.093 1298.35 213.149 1296.62 Q211.227 1294.88 208.125 1294.88 Q205.926 1294.88 203.473 1295.65 Q201.042 1296.41 198.264 1297.96 L198.264 1293.24 Q201.088 1292.1 203.542 1291.53 Q205.996 1290.95 208.033 1290.95 Q213.403 1290.95 216.598 1293.63 Q219.792 1296.32 219.792 1300.81 Q219.792 1302.94 218.982 1304.86 Q218.195 1306.76 216.088 1309.35 Q215.51 1310.02 212.408 1313.24 Q209.306 1316.43 203.658 1322.2 Z" fill="#000000" fill-rule="nonzero" fill-opacity="1" /><path clip-path="url(#clip610)" d="M114.26 1092.37 L143.936 1092.37 L143.936 1096.3 L114.26 1096.3 L114.26 1092.37 Z" fill="#000000" fill-rule="nonzero" fill-opacity="1" /><path clip-path="url(#clip610)" d="M164.028 1077.72 Q160.417 1077.72 158.589 1081.28 Q156.783 1084.82 156.783 1091.95 Q156.783 1099.06 158.589 1102.62 Q160.417 1106.17 164.028 1106.17 Q167.663 1106.17 169.468 1102.62 Q171.297 1099.06 171.297 1091.95 Q171.297 1084.82 169.468 1081.28 Q167.663 1077.72 164.028 1077.72 M164.028 1074.01 Q169.839 1074.01 172.894 1078.62 Q175.973 1083.2 175.973 1091.95 Q175.973 1100.68 172.894 1105.29 Q169.839 1109.87 164.028 1109.87 Q158.218 1109.87 155.14 1105.29 Q152.084 1100.68 152.084 1091.95 Q152.084 1083.2 155.14 1078.62 Q158.218 1074.01 164.028 1074.01 Z" fill="#000000" fill-rule="nonzero" fill-opacity="1" /><path clip-path="url(#clip610)" d="M184.19 1103.32 L189.075 1103.32 L189.075 1109.2 L184.19 1109.2 L184.19 1103.32 Z" fill="#000000" fill-rule="nonzero" fill-opacity="1" /><path clip-path="url(#clip610)" d="M200.07 1105.26 L207.709 1105.26 L207.709 1078.9 L199.399 1080.56 L199.399 1076.3 L207.662 1074.64 L212.338 1074.64 L212.338 1105.26 L219.977 1105.26 L219.977 1109.2 L200.07 1109.2 L200.07 1105.26 Z" fill="#000000" fill-rule="nonzero" fill-opacity="1" /><path clip-path="url(#clip610)" d="M162.802 860.784 Q159.19 860.784 157.362 864.349 Q155.556 867.89 155.556 875.02 Q155.556 882.126 157.362 885.691 Q159.19 889.233 162.802 889.233 Q166.436 889.233 168.241 885.691 Q170.07 882.126 170.07 875.02 Q170.07 867.89 168.241 864.349 Q166.436 860.784 162.802 860.784 M162.802 857.08 Q168.612 857.08 171.667 861.687 Q174.746 866.27 174.746 875.02 Q174.746 883.747 171.667 888.353 Q168.612 892.936 162.802 892.936 Q156.991 892.936 153.913 888.353 Q150.857 883.747 150.857 875.02 Q150.857 866.27 153.913 861.687 Q156.991 857.08 162.802 857.08 Z" fill="#000000" fill-rule="nonzero" fill-opacity="1" /><path clip-path="url(#clip610)" d="M182.963 886.385 L187.848 886.385 L187.848 892.265 L182.963 892.265 L182.963 886.385 Z" fill="#000000" fill-rule="nonzero" fill-opacity="1" /><path clip-path="url(#clip610)" d="M208.033 860.784 Q204.422 860.784 202.593 864.349 Q200.787 867.89 200.787 875.02 Q200.787 882.126 202.593 885.691 Q204.422 889.233 208.033 889.233 Q211.667 889.233 213.473 885.691 Q215.301 882.126 215.301 875.02 Q215.301 867.89 213.473 864.349 Q211.667 860.784 208.033 860.784 M208.033 857.08 Q213.843 857.08 216.898 861.687 Q219.977 866.27 219.977 875.02 Q219.977 883.747 216.898 888.353 Q213.843 892.936 208.033 892.936 Q202.223 892.936 199.144 888.353 Q196.088 883.747 196.088 875.02 Q196.088 866.27 199.144 861.687 Q202.223 857.08 208.033 857.08 Z" fill="#000000" fill-rule="nonzero" fill-opacity="1" /><path clip-path="url(#clip610)" d="M164.028 643.85 Q160.417 643.85 158.589 647.415 Q156.783 650.957 156.783 658.086 Q156.783 665.193 158.589 668.758 Q160.417 672.299 164.028 672.299 Q167.663 672.299 169.468 668.758 Q171.297 665.193 171.297 658.086 Q171.297 650.957 169.468 647.415 Q167.663 643.85 164.028 643.85 M164.028 640.147 Q169.839 640.147 172.894 644.753 Q175.973 649.337 175.973 658.086 Q175.973 666.813 172.894 671.42 Q169.839 676.003 164.028 676.003 Q158.218 676.003 155.14 671.42 Q152.084 666.813 152.084 658.086 Q152.084 649.337 155.14 644.753 Q158.218 640.147 164.028 640.147 Z" fill="#000000" fill-rule="nonzero" fill-opacity="1" /><path clip-path="url(#clip610)" d="M184.19 669.452 L189.075 669.452 L189.075 675.332 L184.19 675.332 L184.19 669.452 Z" fill="#000000" fill-rule="nonzero" fill-opacity="1" /><path clip-path="url(#clip610)" d="M200.07 671.397 L207.709 671.397 L207.709 645.031 L199.399 646.698 L199.399 642.438 L207.662 640.772 L212.338 640.772 L212.338 671.397 L219.977 671.397 L219.977 675.332 L200.07 675.332 L200.07 671.397 Z" fill="#000000" fill-rule="nonzero" fill-opacity="1" /><path clip-path="url(#clip610)" d="M164.399 426.917 Q160.788 426.917 158.959 430.482 Q157.153 434.024 157.153 441.153 Q157.153 448.26 158.959 451.824 Q160.788 455.366 164.399 455.366 Q168.033 455.366 169.839 451.824 Q171.667 448.26 171.667 441.153 Q171.667 434.024 169.839 430.482 Q168.033 426.917 164.399 426.917 M164.399 423.213 Q170.209 423.213 173.264 427.82 Q176.343 432.403 176.343 441.153 Q176.343 449.88 173.264 454.486 Q170.209 459.07 164.399 459.07 Q158.589 459.07 155.51 454.486 Q152.454 449.88 152.454 441.153 Q152.454 432.403 155.51 427.82 Q158.589 423.213 164.399 423.213 Z" fill="#000000" fill-rule="nonzero" fill-opacity="1" /><path clip-path="url(#clip610)" d="M184.561 452.519 L189.445 452.519 L189.445 458.398 L184.561 458.398 L184.561 452.519 Z" fill="#000000" fill-rule="nonzero" fill-opacity="1" /><path clip-path="url(#clip610)" d="M203.658 454.463 L219.977 454.463 L219.977 458.398 L198.033 458.398 L198.033 454.463 Q200.695 451.709 205.278 447.079 Q209.885 442.426 211.065 441.084 Q213.311 438.561 214.19 436.824 Q215.093 435.065 215.093 433.375 Q215.093 430.621 213.149 428.885 Q211.227 427.149 208.125 427.149 Q205.926 427.149 203.473 427.913 Q201.042 428.676 198.264 430.227 L198.264 425.505 Q201.088 424.371 203.542 423.792 Q205.996 423.213 208.033 423.213 Q213.403 423.213 216.598 425.899 Q219.792 428.584 219.792 433.075 Q219.792 435.204 218.982 437.125 Q218.195 439.024 216.088 441.616 Q215.51 442.287 212.408 445.505 Q209.306 448.699 203.658 454.463 Z" fill="#000000" fill-rule="nonzero" fill-opacity="1" /><path clip-path="url(#clip610)" d="M163.45 209.984 Q159.839 209.984 158.01 213.549 Q156.204 217.09 156.204 224.22 Q156.204 231.326 158.01 234.891 Q159.839 238.433 163.45 238.433 Q167.084 238.433 168.889 234.891 Q170.718 231.326 170.718 224.22 Q170.718 217.09 168.889 213.549 Q167.084 209.984 163.45 209.984 M163.45 206.28 Q169.26 206.28 172.315 210.887 Q175.394 215.47 175.394 224.22 Q175.394 232.947 172.315 237.553 Q169.26 242.136 163.45 242.136 Q157.64 242.136 154.561 237.553 Q151.505 232.947 151.505 224.22 Q151.505 215.47 154.561 210.887 Q157.64 206.28 163.45 206.28 Z" fill="#000000" fill-rule="nonzero" fill-opacity="1" /><path clip-path="url(#clip610)" d="M183.612 235.586 L188.496 235.586 L188.496 241.465 L183.612 241.465 L183.612 235.586 Z" fill="#000000" fill-rule="nonzero" fill-opacity="1" /><path clip-path="url(#clip610)" d="M212.848 222.831 Q216.204 223.549 218.079 225.817 Q219.977 228.086 219.977 231.419 Q219.977 236.535 216.459 239.336 Q212.94 242.136 206.459 242.136 Q204.283 242.136 201.968 241.697 Q199.676 241.28 197.223 240.423 L197.223 235.91 Q199.167 237.044 201.482 237.623 Q203.797 238.201 206.32 238.201 Q210.718 238.201 213.01 236.465 Q215.324 234.729 215.324 231.419 Q215.324 228.363 213.172 226.65 Q211.042 224.914 207.223 224.914 L203.195 224.914 L203.195 221.072 L207.408 221.072 Q210.857 221.072 212.686 219.706 Q214.514 218.317 214.514 215.725 Q214.514 213.063 212.616 211.651 Q210.741 210.215 207.223 210.215 Q205.301 210.215 203.102 210.632 Q200.903 211.049 198.264 211.928 L198.264 207.762 Q200.926 207.021 203.241 206.651 Q205.579 206.28 207.639 206.28 Q212.963 206.28 216.065 208.711 Q219.167 211.118 219.167 215.238 Q219.167 218.109 217.523 220.1 Q215.88 222.067 212.848 222.831 Z" fill="#000000" fill-rule="nonzero" fill-opacity="1" /><path clip-path="url(#clip610)" d="M18.9013 759.946 Q19.481 759.946 19.8031 760.172 Q20.0929 760.365 20.1574 760.59 Q20.1896 760.816 20.2218 761.396 Q20.4472 766.001 23.5712 769.769 Q24.3763 770.703 26.8884 773.054 Q29.4004 775.373 32.7499 778.465 Q36.0993 781.524 37.9028 783.295 L58.2569 774.793 Q59.062 774.439 59.4163 774.31 Q59.7384 774.149 60.157 773.827 Q60.5757 773.473 60.7045 773.215 Q60.8334 772.925 60.9944 772.313 Q61.1232 771.669 61.1554 771.025 Q61.1554 770.349 61.1876 769.125 Q61.1876 768.738 61.2198 768.577 Q61.2198 768.384 61.4131 768.159 Q61.5741 767.933 61.9606 767.933 Q62.5403 767.933 62.8623 768.191 Q63.1522 768.416 63.1844 768.642 Q63.2166 768.835 63.2166 769.189 Q63.2166 770.027 63.12 772.861 Q63.0234 775.695 63.0234 776.5 L63.2166 784.809 Q63.2166 785.808 62.4114 785.808 Q61.9928 785.808 61.7673 785.743 Q61.5097 785.647 61.4131 785.421 Q61.2842 785.196 61.252 785.035 Q61.2198 784.874 61.1876 784.487 Q61.0588 783.295 60.7045 782.394 Q60.3181 781.46 59.9316 781.073 Q59.5451 780.655 59.2553 780.655 L58.3213 780.977 L42.5726 787.643 L49.046 793.601 L56.1635 800.332 Q58.0637 802.104 59.1265 802.104 Q60.8978 802.104 61.1876 799.463 Q61.252 798.658 61.8962 798.658 Q62.5081 798.658 62.8301 798.915 Q63.12 799.141 63.1844 799.366 Q63.2166 799.559 63.2166 799.849 Q63.2166 801.041 63.12 803.553 Q63.0234 806.033 63.0234 807.257 Q63.0234 808.287 63.12 810.381 Q63.2166 812.474 63.2166 813.44 Q63.2166 813.827 63.0234 814.052 Q62.8301 814.278 62.6369 814.278 L62.4759 814.31 Q62.025 814.31 61.7673 814.245 Q61.5097 814.149 61.3809 813.891 Q61.252 813.601 61.252 813.472 Q61.2198 813.344 61.1876 812.86 Q61.0266 810.123 59.9638 807.804 Q58.901 805.453 56.4212 803.167 Q56.2601 802.973 56.0669 802.748 Q55.8737 802.49 55.7126 802.297 L40.7369 788.384 L22.3152 796.178 Q21.4778 796.532 21.1235 796.854 Q20.7371 797.176 20.4794 798.175 Q20.2218 799.173 20.2218 801.105 Q20.2218 801.653 20.1896 801.91 Q20.1574 802.168 19.9963 802.394 Q19.8353 802.619 19.481 802.619 Q18.8691 802.619 18.5793 802.394 Q18.2572 802.136 18.225 801.943 Q18.1606 801.717 18.1606 801.427 Q18.1606 800.622 18.2572 797.756 Q18.3538 794.89 18.3538 794.052 Q18.3538 792.667 18.2572 789.898 Q18.1606 787.096 18.1606 785.743 Q18.1606 784.745 18.9657 784.745 Q19.481 784.745 19.7709 784.97 Q20.0607 785.196 20.1252 785.421 Q20.1896 785.647 20.2218 786.065 Q20.3506 787.321 20.7693 788.287 Q21.1557 789.221 21.5422 789.608 Q21.8965 789.962 22.1219 789.962 L22.9915 789.64 L36.0993 784.101 L24.634 773.408 Q23.2169 772.152 22.2507 772.152 Q20.5116 772.152 20.2218 774.793 Q20.0929 775.598 19.481 775.598 Q18.8691 775.598 18.5793 775.341 Q18.2572 775.083 18.225 774.89 Q18.1606 774.664 18.1606 774.342 Q18.1606 773.151 18.2572 770.703 Q18.3538 768.223 18.3538 766.999 Q18.3538 765.969 18.2572 763.875 Q18.1606 761.782 18.1606 760.816 Q18.1606 760.429 18.3538 760.204 Q18.5149 759.978 18.7081 759.978 L18.9013 759.946 Z" fill="#000000" fill-rule="nonzero" fill-opacity="1" /><path clip-path="url(#clip610)" d="M61.0027 739.246 Q61.634 739.246 61.7918 739.539 Q61.927 739.832 61.927 740.643 L61.927 744.972 L75.5437 748.399 Q76.7385 748.669 77.753 748.669 Q78.8802 748.669 79.3762 748.331 Q79.8721 747.97 79.8721 747.226 Q79.8721 745.761 78.542 744.183 Q77.2119 742.582 73.9656 741.23 Q73.5373 741.049 73.4471 740.959 Q73.3344 740.846 73.3344 740.553 Q73.3344 739.99 73.7852 739.99 Q73.943 739.99 74.6645 740.305 Q75.3859 740.598 76.4454 741.252 Q77.505 741.883 78.497 742.718 Q79.4889 743.529 80.2103 744.769 Q80.9092 746.009 80.9092 747.339 Q80.9092 749.21 79.7143 750.405 Q78.5195 751.577 76.6483 751.577 Q76.0396 751.577 74.1009 751.104 Q72.1395 750.631 61.927 748.06 L61.927 752.141 Q61.927 752.705 61.9045 752.93 Q61.8819 753.133 61.7692 753.291 Q61.634 753.426 61.3634 753.426 Q60.9351 753.426 60.7547 753.246 Q60.5518 753.065 60.5293 752.84 Q60.4842 752.592 60.4842 752.028 L60.4842 747.7 L53.1574 745.896 Q52.436 745.716 52.0302 745.265 Q51.6018 744.792 51.5567 744.521 Q51.4891 744.251 51.4891 744.048 Q51.4891 743.439 51.8273 743.078 Q52.1429 742.718 52.729 742.718 Q53.0447 742.718 60.4842 744.611 L60.4842 740.553 Q60.4842 740.035 60.5068 739.832 Q60.5293 739.606 60.642 739.426 Q60.7547 739.246 61.0027 739.246 Z" fill="#000000" fill-rule="nonzero" fill-opacity="1" /><path clip-path="url(#clip610)" d="M540.872 43.6931 L540.872 65.8515 L553.997 65.8515 Q560.6 65.8515 563.76 63.1374 Q566.96 60.3828 566.96 54.752 Q566.96 49.0808 563.76 46.4072 Q560.6 43.6931 553.997 43.6931 L540.872 43.6931 M540.872 18.8205 L540.872 37.0496 L552.985 37.0496 Q558.98 37.0496 561.897 34.8216 Q564.854 32.5531 564.854 27.935 Q564.854 23.3575 561.897 21.089 Q558.98 18.8205 552.985 18.8205 L540.872 18.8205 M532.69 12.096 L553.592 12.096 Q562.95 12.096 568.013 15.9849 Q573.077 19.8737 573.077 27.0438 Q573.077 32.5936 570.484 35.8748 Q567.892 39.156 562.869 39.9662 Q568.905 41.2625 572.226 45.3944 Q575.589 49.4858 575.589 55.6432 Q575.589 63.745 570.079 68.1605 Q564.57 72.576 554.402 72.576 L532.69 72.576 L532.69 12.096 Z" fill="#000000" fill-rule="nonzero" fill-opacity="1" /><path clip-path="url(#clip610)" d="M609.9 49.7694 Q600.866 49.7694 597.382 51.8354 Q593.899 53.9013 593.899 58.8839 Q593.899 62.8538 596.491 65.2034 Q599.124 67.5124 603.621 67.5124 Q609.819 67.5124 613.546 63.1374 Q617.313 58.7219 617.313 51.4303 L617.313 49.7694 L609.9 49.7694 M624.767 46.6907 L624.767 72.576 L617.313 72.576 L617.313 65.6895 Q614.761 69.8214 610.953 71.8063 Q607.145 73.7508 601.636 73.7508 Q594.668 73.7508 590.536 69.8619 Q586.445 65.9325 586.445 59.3701 Q586.445 51.7138 591.549 47.825 Q596.694 43.9361 606.862 43.9361 L617.313 43.9361 L617.313 43.2069 Q617.313 38.0623 613.91 35.2672 Q610.548 32.4315 604.431 32.4315 Q600.542 32.4315 596.856 33.3632 Q593.17 34.295 589.767 36.1584 L589.767 29.2718 Q593.858 27.692 597.707 26.9223 Q601.555 26.1121 605.201 26.1121 Q615.044 26.1121 619.906 31.2163 Q624.767 36.3204 624.767 46.6907 Z" fill="#000000" fill-rule="nonzero" fill-opacity="1" /><path clip-path="url(#clip610)" d="M658.997 76.7889 Q655.837 84.8907 652.839 87.3618 Q649.842 89.8329 644.819 89.8329 L638.864 89.8329 L638.864 83.5945 L643.239 83.5945 Q646.317 83.5945 648.019 82.1361 Q649.72 80.6778 651.786 75.2496 L653.123 71.8468 L634.772 27.2059 L642.672 27.2059 L656.85 62.6918 L671.028 27.2059 L678.927 27.2059 L658.997 76.7889 Z" fill="#000000" fill-rule="nonzero" fill-opacity="1" /><path clip-path="url(#clip610)" d="M728.024 48.0275 L728.024 51.6733 L693.753 51.6733 Q694.24 59.3701 698.372 63.421 Q702.544 67.4314 709.957 67.4314 Q714.251 67.4314 718.261 66.3781 Q722.312 65.3249 726.282 63.2184 L726.282 70.267 Q722.272 71.9684 718.059 72.8596 Q713.846 73.7508 709.512 73.7508 Q698.655 73.7508 692.295 67.4314 Q685.976 61.1119 685.976 50.3365 Q685.976 39.1965 691.971 32.6746 Q698.007 26.1121 708.215 26.1121 Q717.37 26.1121 722.677 32.0264 Q728.024 37.9003 728.024 48.0275 M720.57 45.84 Q720.489 39.7232 717.127 36.0774 Q713.805 32.4315 708.296 32.4315 Q702.058 32.4315 698.291 35.9558 Q694.564 39.4801 693.997 45.8805 L720.57 45.84 Z" fill="#000000" fill-rule="nonzero" fill-opacity="1" /><path clip-path="url(#clip610)" d="M769.181 28.5427 L769.181 35.5912 Q766.022 33.9709 762.619 33.1607 Q759.216 32.3505 755.57 32.3505 Q750.021 32.3505 747.225 34.0519 Q744.471 35.7533 744.471 39.156 Q744.471 41.7486 746.456 43.2475 Q748.441 44.7058 754.436 46.0426 L756.988 46.6097 Q764.928 48.3111 768.25 51.4303 Q771.612 54.509 771.612 60.0587 Q771.612 66.3781 766.589 70.0644 Q761.606 73.7508 752.856 73.7508 Q749.21 73.7508 745.24 73.0216 Q741.311 72.3329 736.936 70.9151 L736.936 63.2184 Q741.068 65.3654 745.078 66.4591 Q749.089 67.5124 753.018 67.5124 Q758.284 67.5124 761.12 65.73 Q763.956 63.9071 763.956 60.6258 Q763.956 57.5877 761.89 55.9673 Q759.864 54.3469 752.937 52.8481 L750.345 52.2405 Q743.418 50.7821 740.339 47.7845 Q737.26 44.7463 737.26 39.4801 Q737.26 33.0797 741.797 29.5959 Q746.334 26.1121 754.679 26.1121 Q758.811 26.1121 762.457 26.7198 Q766.103 27.3274 769.181 28.5427 Z" fill="#000000" fill-rule="nonzero" fill-opacity="1" /><path clip-path="url(#clip610)" d="M783.481 27.2059 L790.935 27.2059 L790.935 72.576 L783.481 72.576 L783.481 27.2059 M783.481 9.54393 L790.935 9.54393 L790.935 18.9825 L783.481 18.9825 L783.481 9.54393 Z" fill="#000000" fill-rule="nonzero" fill-opacity="1" /><path clip-path="url(#clip610)" d="M827.15 49.7694 Q818.116 49.7694 814.632 51.8354 Q811.149 53.9013 811.149 58.8839 Q811.149 62.8538 813.741 65.2034 Q816.374 67.5124 820.871 67.5124 Q827.069 67.5124 830.796 63.1374 Q834.563 58.7219 834.563 51.4303 L834.563 49.7694 L827.15 49.7694 M842.017 46.6907 L842.017 72.576 L834.563 72.576 L834.563 65.6895 Q832.011 69.8214 828.203 71.8063 Q824.395 73.7508 818.886 73.7508 Q811.918 73.7508 807.786 69.8619 Q803.695 65.9325 803.695 59.3701 Q803.695 51.7138 808.799 47.825 Q813.944 43.9361 824.112 43.9361 L834.563 43.9361 L834.563 43.2069 Q834.563 38.0623 831.16 35.2672 Q827.798 32.4315 821.681 32.4315 Q817.792 32.4315 814.106 33.3632 Q810.42 34.295 807.017 36.1584 L807.017 29.2718 Q811.108 27.692 814.957 26.9223 Q818.805 26.1121 822.451 26.1121 Q832.294 26.1121 837.156 31.2163 Q842.017 36.3204 842.017 46.6907 Z" fill="#000000" fill-rule="nonzero" fill-opacity="1" /><path clip-path="url(#clip610)" d="M895.083 45.1919 L895.083 72.576 L887.63 72.576 L887.63 45.4349 Q887.63 38.994 885.118 35.7938 Q882.607 32.5936 877.584 32.5936 Q871.548 32.5936 868.064 36.4419 Q864.58 40.2903 864.58 46.9338 L864.58 72.576 L857.086 72.576 L857.086 27.2059 L864.58 27.2059 L864.58 34.2544 Q867.254 30.163 870.859 28.1376 Q874.505 26.1121 879.244 26.1121 Q887.063 26.1121 891.073 30.9732 Q895.083 35.7938 895.083 45.1919 Z" fill="#000000" fill-rule="nonzero" fill-opacity="1" /><path clip-path="url(#clip610)" d="M956.86 20.1573 L945.76 50.2555 L968 50.2555 L956.86 20.1573 M952.242 12.096 L961.518 12.096 L984.568 72.576 L976.061 72.576 L970.552 57.061 L943.289 57.061 L937.78 72.576 L929.152 72.576 L952.242 12.096 Z" fill="#000000" fill-rule="nonzero" fill-opacity="1" /><path clip-path="url(#clip610)" d="M992.305 54.671 L992.305 27.2059 L999.759 27.2059 L999.759 54.3874 Q999.759 60.8284 1002.27 64.0691 Q1004.78 67.2693 1009.81 67.2693 Q1015.84 67.2693 1019.32 63.421 Q1022.85 59.5726 1022.85 52.9291 L1022.85 27.2059 L1030.3 27.2059 L1030.3 72.576 L1022.85 72.576 L1022.85 65.6084 Q1020.13 69.7404 1016.53 71.7658 Q1012.96 73.7508 1008.23 73.7508 Q1000.41 73.7508 996.356 68.8897 Q992.305 64.0286 992.305 54.671 M1011.06 26.1121 L1011.06 26.1121 Z" fill="#000000" fill-rule="nonzero" fill-opacity="1" /><path clip-path="url(#clip610)" d="M1053.03 14.324 L1053.03 27.2059 L1068.38 27.2059 L1068.38 32.9987 L1053.03 32.9987 L1053.03 57.6282 Q1053.03 63.1779 1054.53 64.7578 Q1056.07 66.3376 1060.72 66.3376 L1068.38 66.3376 L1068.38 72.576 L1060.72 72.576 Q1052.1 72.576 1048.82 69.3758 Q1045.53 66.1351 1045.53 57.6282 L1045.53 32.9987 L1040.07 32.9987 L1040.07 27.2059 L1045.53 27.2059 L1045.53 14.324 L1053.03 14.324 Z" fill="#000000" fill-rule="nonzero" fill-opacity="1" /><path clip-path="url(#clip610)" d="M1095.77 32.4315 Q1089.77 32.4315 1086.29 37.1306 Q1082.8 41.7891 1082.8 49.9314 Q1082.8 58.0738 1086.25 62.7728 Q1089.73 67.4314 1095.77 67.4314 Q1101.72 67.4314 1105.2 62.7323 Q1108.69 58.0333 1108.69 49.9314 Q1108.69 41.8701 1105.2 37.1711 Q1101.72 32.4315 1095.77 32.4315 M1095.77 26.1121 Q1105.49 26.1121 1111.04 32.4315 Q1116.59 38.7509 1116.59 49.9314 Q1116.59 61.0714 1111.04 67.4314 Q1105.49 73.7508 1095.77 73.7508 Q1086 73.7508 1080.45 67.4314 Q1074.94 61.0714 1074.94 49.9314 Q1074.94 38.7509 1080.45 32.4315 Q1086 26.1121 1095.77 26.1121 Z" fill="#000000" fill-rule="nonzero" fill-opacity="1" /><path clip-path="url(#clip610)" d="M1155.23 34.1734 Q1153.98 33.4443 1152.48 33.1202 Q1151.02 32.7556 1149.24 32.7556 Q1142.92 32.7556 1139.51 36.8875 Q1136.15 40.9789 1136.15 48.6757 L1136.15 72.576 L1128.66 72.576 L1128.66 27.2059 L1136.15 27.2059 L1136.15 34.2544 Q1138.5 30.1225 1142.27 28.1376 Q1146.04 26.1121 1151.42 26.1121 Q1152.19 26.1121 1153.13 26.2337 Q1154.06 26.3147 1155.19 26.5172 L1155.23 34.1734 Z" fill="#000000" fill-rule="nonzero" fill-opacity="1" /><path clip-path="url(#clip610)" d="M1200.04 48.0275 L1200.04 51.6733 L1165.76 51.6733 Q1166.25 59.3701 1170.38 63.421 Q1174.56 67.4314 1181.97 67.4314 Q1186.26 67.4314 1190.27 66.3781 Q1194.32 65.3249 1198.29 63.2184 L1198.29 70.267 Q1194.28 71.9684 1190.07 72.8596 Q1185.86 73.7508 1181.52 73.7508 Q1170.67 73.7508 1164.31 67.4314 Q1157.99 61.1119 1157.99 50.3365 Q1157.99 39.1965 1163.98 32.6746 Q1170.02 26.1121 1180.23 26.1121 Q1189.38 26.1121 1194.69 32.0264 Q1200.04 37.9003 1200.04 48.0275 M1192.58 45.84 Q1192.5 39.7232 1189.14 36.0774 Q1185.82 32.4315 1180.31 32.4315 Q1174.07 32.4315 1170.3 35.9558 Q1166.58 39.4801 1166.01 45.8805 L1192.58 45.84 Z" fill="#000000" fill-rule="nonzero" fill-opacity="1" /><path clip-path="url(#clip610)" d="M1242.12 49.3643 Q1242.12 41.2625 1238.76 36.8065 Q1235.44 32.3505 1229.4 32.3505 Q1223.41 32.3505 1220.05 36.8065 Q1216.73 41.2625 1216.73 49.3643 Q1216.73 57.4256 1220.05 61.8816 Q1223.41 66.3376 1229.4 66.3376 Q1235.44 66.3376 1238.76 61.8816 Q1242.12 57.4256 1242.12 49.3643 M1249.58 66.9452 Q1249.58 78.5308 1244.43 84.1616 Q1239.29 89.8329 1228.68 89.8329 Q1224.75 89.8329 1221.26 89.2252 Q1217.78 88.6581 1214.5 87.4428 L1214.5 80.1917 Q1217.78 81.9741 1220.98 82.8248 Q1224.18 83.6755 1227.5 83.6755 Q1234.83 83.6755 1238.48 79.8271 Q1242.12 76.0193 1242.12 68.282 L1242.12 64.5957 Q1239.82 68.6061 1236.21 70.5911 Q1232.6 72.576 1227.58 72.576 Q1219.24 72.576 1214.13 66.2161 Q1209.03 59.8562 1209.03 49.3643 Q1209.03 38.832 1214.13 32.472 Q1219.24 26.1121 1227.58 26.1121 Q1232.6 26.1121 1236.21 28.0971 Q1239.82 30.082 1242.12 34.0924 L1242.12 27.2059 L1249.58 27.2059 L1249.58 66.9452 Z" fill="#000000" fill-rule="nonzero" fill-opacity="1" /><path clip-path="url(#clip610)" d="M1291.22 34.1734 Q1289.97 33.4443 1288.47 33.1202 Q1287.01 32.7556 1285.23 32.7556 Q1278.91 32.7556 1275.5 36.8875 Q1272.14 40.9789 1272.14 48.6757 L1272.14 72.576 L1264.65 72.576 L1264.65 27.2059 L1272.14 27.2059 L1272.14 34.2544 Q1274.49 30.1225 1278.26 28.1376 Q1282.03 26.1121 1287.41 26.1121 Q1288.18 26.1121 1289.11 26.2337 Q1290.05 26.3147 1291.18 26.5172 L1291.22 34.1734 Z" fill="#000000" fill-rule="nonzero" fill-opacity="1" /><path clip-path="url(#clip610)" d="M1336.02 48.0275 L1336.02 51.6733 L1301.75 51.6733 Q1302.24 59.3701 1306.37 63.421 Q1310.54 67.4314 1317.96 67.4314 Q1322.25 67.4314 1326.26 66.3781 Q1330.31 65.3249 1334.28 63.2184 L1334.28 70.267 Q1330.27 71.9684 1326.06 72.8596 Q1321.85 73.7508 1317.51 73.7508 Q1306.66 73.7508 1300.3 67.4314 Q1293.98 61.1119 1293.98 50.3365 Q1293.98 39.1965 1299.97 32.6746 Q1306.01 26.1121 1316.22 26.1121 Q1325.37 26.1121 1330.68 32.0264 Q1336.02 37.9003 1336.02 48.0275 M1328.57 45.84 Q1328.49 39.7232 1325.13 36.0774 Q1321.81 32.4315 1316.3 32.4315 Q1310.06 32.4315 1306.29 35.9558 Q1302.56 39.4801 1302 45.8805 L1328.57 45.84 Z" fill="#000000" fill-rule="nonzero" fill-opacity="1" /><path clip-path="url(#clip610)" d="M1377.18 28.5427 L1377.18 35.5912 Q1374.02 33.9709 1370.62 33.1607 Q1367.22 32.3505 1363.57 32.3505 Q1358.02 32.3505 1355.23 34.0519 Q1352.47 35.7533 1352.47 39.156 Q1352.47 41.7486 1354.46 43.2475 Q1356.44 44.7058 1362.44 46.0426 L1364.99 46.6097 Q1372.93 48.3111 1376.25 51.4303 Q1379.61 54.509 1379.61 60.0587 Q1379.61 66.3781 1374.59 70.0644 Q1369.61 73.7508 1360.86 73.7508 Q1357.21 73.7508 1353.24 73.0216 Q1349.31 72.3329 1344.94 70.9151 L1344.94 63.2184 Q1349.07 65.3654 1353.08 66.4591 Q1357.09 67.5124 1361.02 67.5124 Q1366.28 67.5124 1369.12 65.73 Q1371.96 63.9071 1371.96 60.6258 Q1371.96 57.5877 1369.89 55.9673 Q1367.86 54.3469 1360.94 52.8481 L1358.34 52.2405 Q1351.42 50.7821 1348.34 47.7845 Q1345.26 44.7463 1345.26 39.4801 Q1345.26 33.0797 1349.8 29.5959 Q1354.33 26.1121 1362.68 26.1121 Q1366.81 26.1121 1370.46 26.7198 Q1374.1 27.3274 1377.18 28.5427 Z" fill="#000000" fill-rule="nonzero" fill-opacity="1" /><path clip-path="url(#clip610)" d="M1420.4 28.5427 L1420.4 35.5912 Q1417.24 33.9709 1413.84 33.1607 Q1410.44 32.3505 1406.79 32.3505 Q1401.24 32.3505 1398.45 34.0519 Q1395.69 35.7533 1395.69 39.156 Q1395.69 41.7486 1397.68 43.2475 Q1399.66 44.7058 1405.66 46.0426 L1408.21 46.6097 Q1416.15 48.3111 1419.47 51.4303 Q1422.84 54.509 1422.84 60.0587 Q1422.84 66.3781 1417.81 70.0644 Q1412.83 73.7508 1404.08 73.7508 Q1400.43 73.7508 1396.46 73.0216 Q1392.53 72.3329 1388.16 70.9151 L1388.16 63.2184 Q1392.29 65.3654 1396.3 66.4591 Q1400.31 67.5124 1404.24 67.5124 Q1409.51 67.5124 1412.34 65.73 Q1415.18 63.9071 1415.18 60.6258 Q1415.18 57.5877 1413.11 55.9673 Q1411.09 54.3469 1404.16 52.8481 L1401.57 52.2405 Q1394.64 50.7821 1391.56 47.7845 Q1388.48 44.7463 1388.48 39.4801 Q1388.48 33.0797 1393.02 29.5959 Q1397.56 26.1121 1405.9 26.1121 Q1410.03 26.1121 1413.68 26.7198 Q1417.33 27.3274 1420.4 28.5427 Z" fill="#000000" fill-rule="nonzero" fill-opacity="1" /><path clip-path="url(#clip610)" d="M1434.7 27.2059 L1442.16 27.2059 L1442.16 72.576 L1434.7 72.576 L1434.7 27.2059 M1434.7 9.54393 L1442.16 9.54393 L1442.16 18.9825 L1434.7 18.9825 L1434.7 9.54393 Z" fill="#000000" fill-rule="nonzero" fill-opacity="1" /><path clip-path="url(#clip610)" d="M1452.41 27.2059 L1460.31 27.2059 L1474.48 65.2844 L1488.66 27.2059 L1496.56 27.2059 L1479.55 72.576 L1469.42 72.576 L1452.41 27.2059 Z" fill="#000000" fill-rule="nonzero" fill-opacity="1" /><path clip-path="url(#clip610)" d="M1545.66 48.0275 L1545.66 51.6733 L1511.39 51.6733 Q1511.87 59.3701 1516.01 63.421 Q1520.18 67.4314 1527.59 67.4314 Q1531.89 67.4314 1535.9 66.3781 Q1539.95 65.3249 1543.92 63.2184 L1543.92 70.267 Q1539.91 71.9684 1535.69 72.8596 Q1531.48 73.7508 1527.15 73.7508 Q1516.29 73.7508 1509.93 67.4314 Q1503.61 61.1119 1503.61 50.3365 Q1503.61 39.1965 1509.61 32.6746 Q1515.64 26.1121 1525.85 26.1121 Q1535 26.1121 1540.31 32.0264 Q1545.66 37.9003 1545.66 48.0275 M1538.2 45.84 Q1538.12 39.7232 1534.76 36.0774 Q1531.44 32.4315 1525.93 32.4315 Q1519.69 32.4315 1515.93 35.9558 Q1512.2 39.4801 1511.63 45.8805 L1538.2 45.84 Z" fill="#000000" fill-rule="nonzero" fill-opacity="1" /><path clip-path="url(#clip610)" d="M1604.8 20.1573 L1593.7 50.2555 L1615.94 50.2555 L1604.8 20.1573 M1600.18 12.096 L1609.46 12.096 L1632.51 72.576 L1624 72.576 L1618.49 57.061 L1591.23 57.061 L1585.72 72.576 L1577.09 72.576 L1600.18 12.096 Z" fill="#000000" fill-rule="nonzero" fill-opacity="1" /><path clip-path="url(#clip610)" d="M1670.02 44.2197 Q1672.65 45.1109 1675.13 48.0275 Q1677.64 50.9442 1680.15 56.0483 L1688.45 72.576 L1679.66 72.576 L1671.93 57.061 Q1668.93 50.9847 1666.09 48.9997 Q1663.3 47.0148 1658.44 47.0148 L1649.52 47.0148 L1649.52 72.576 L1641.34 72.576 L1641.34 12.096 L1659.81 12.096 Q1670.18 12.096 1675.29 16.4305 Q1680.39 20.7649 1680.39 29.5149 Q1680.39 35.2267 1677.72 38.994 Q1675.09 42.7613 1670.02 44.2197 M1649.52 18.8205 L1649.52 40.2903 L1659.81 40.2903 Q1665.73 40.2903 1668.73 37.5762 Q1671.76 34.8216 1671.76 29.5149 Q1671.76 24.2082 1668.73 21.5346 Q1665.73 18.8205 1659.81 18.8205 L1649.52 18.8205 Z" fill="#000000" fill-rule="nonzero" fill-opacity="1" /><path clip-path="url(#clip610)" d="M1716.57 9.62495 Q1711.14 18.942 1708.51 28.0566 Q1705.87 37.1711 1705.87 46.5287 Q1705.87 55.8863 1708.51 65.0818 Q1711.18 74.2369 1716.57 83.5134 L1710.08 83.5134 Q1704.01 73.9938 1700.97 64.7983 Q1697.97 55.6027 1697.97 46.5287 Q1697.97 37.4952 1700.97 28.3401 Q1703.97 19.1851 1710.08 9.62495 L1716.57 9.62495 Z" fill="#000000" fill-rule="nonzero" fill-opacity="1" /><path clip-path="url(#clip610)" d="M1739.13 65.6895 L1767.69 65.6895 L1767.69 72.576 L1729.29 72.576 L1729.29 65.6895 Q1733.94 60.8689 1741.97 52.7671 Q1750.03 44.6248 1752.09 42.2752 Q1756.02 37.8598 1757.56 34.8216 Q1759.14 31.7429 1759.14 28.7857 Q1759.14 23.9651 1755.74 20.927 Q1752.38 17.8888 1746.95 17.8888 Q1743.1 17.8888 1738.81 19.2256 Q1734.55 20.5624 1729.69 23.2765 L1729.69 15.0127 Q1734.63 13.0277 1738.93 12.015 Q1743.22 11.0023 1746.79 11.0023 Q1756.18 11.0023 1761.77 15.7013 Q1767.36 20.4004 1767.36 28.2591 Q1767.36 31.9859 1765.95 35.3482 Q1764.57 38.6699 1760.88 43.2069 Q1759.87 44.3817 1754.44 50.0125 Q1749.01 55.6027 1739.13 65.6895 Z" fill="#000000" fill-rule="nonzero" fill-opacity="1" /><path clip-path="url(#clip610)" d="M1782.64 9.62495 L1789.12 9.62495 Q1795.19 19.1851 1798.19 28.3401 Q1801.23 37.4952 1801.23 46.5287 Q1801.23 55.6027 1798.19 64.7983 Q1795.19 73.9938 1789.12 83.5134 L1782.64 83.5134 Q1788.02 74.2369 1790.66 65.0818 Q1793.33 55.8863 1793.33 46.5287 Q1793.33 37.1711 1790.66 28.0566 Q1788.02 18.942 1782.64 9.62495 Z" fill="#000000" fill-rule="nonzero" fill-opacity="1" /><path clip-path="url(#clip610)" d="M1842.87 12.096 L1855.07 12.096 L1870.5 53.2532 L1886.02 12.096 L1898.21 12.096 L1898.21 72.576 L1890.23 72.576 L1890.23 19.4686 L1874.63 60.9499 L1866.41 60.9499 L1850.81 19.4686 L1850.81 72.576 L1842.87 72.576 L1842.87 12.096 Z" fill="#000000" fill-rule="nonzero" fill-opacity="1" /><path clip-path="url(#clip610)" d="M1931.71 32.4315 Q1925.71 32.4315 1922.23 37.1306 Q1918.75 41.7891 1918.75 49.9314 Q1918.75 58.0738 1922.19 62.7728 Q1925.67 67.4314 1931.71 67.4314 Q1937.66 67.4314 1941.15 62.7323 Q1944.63 58.0333 1944.63 49.9314 Q1944.63 41.8701 1941.15 37.1711 Q1937.66 32.4315 1931.71 32.4315 M1931.71 26.1121 Q1941.43 26.1121 1946.98 32.4315 Q1952.53 38.7509 1952.53 49.9314 Q1952.53 61.0714 1946.98 67.4314 Q1941.43 73.7508 1931.71 73.7508 Q1921.95 73.7508 1916.4 67.4314 Q1910.89 61.0714 1910.89 49.9314 Q1910.89 38.7509 1916.4 32.4315 Q1921.95 26.1121 1931.71 26.1121 Z" fill="#000000" fill-rule="nonzero" fill-opacity="1" /><path clip-path="url(#clip610)" d="M1994.74 34.0924 L1994.74 9.54393 L2002.2 9.54393 L2002.2 72.576 L1994.74 72.576 L1994.74 65.7705 Q1992.39 69.8214 1988.79 71.8063 Q1985.22 73.7508 1980.2 73.7508 Q1971.98 73.7508 1966.79 67.1883 Q1961.65 60.6258 1961.65 49.9314 Q1961.65 39.2371 1966.79 32.6746 Q1971.98 26.1121 1980.2 26.1121 Q1985.22 26.1121 1988.79 28.0971 Q1992.39 30.0415 1994.74 34.0924 M1969.34 49.9314 Q1969.34 58.1548 1972.7 62.8538 Q1976.11 67.5124 1982.02 67.5124 Q1987.94 67.5124 1991.34 62.8538 Q1994.74 58.1548 1994.74 49.9314 Q1994.74 41.7081 1991.34 37.0496 Q1987.94 32.3505 1982.02 32.3505 Q1976.11 32.3505 1972.7 37.0496 Q1969.34 41.7081 1969.34 49.9314 Z" fill="#000000" fill-rule="nonzero" fill-opacity="1" /><path clip-path="url(#clip610)" d="M2056.36 48.0275 L2056.36 51.6733 L2022.09 51.6733 Q2022.57 59.3701 2026.7 63.421 Q2030.88 67.4314 2038.29 67.4314 Q2042.58 67.4314 2046.59 66.3781 Q2050.64 65.3249 2054.61 63.2184 L2054.61 70.267 Q2050.6 71.9684 2046.39 72.8596 Q2042.18 73.7508 2037.84 73.7508 Q2026.99 73.7508 2020.63 67.4314 Q2014.31 61.1119 2014.31 50.3365 Q2014.31 39.1965 2020.3 32.6746 Q2026.34 26.1121 2036.55 26.1121 Q2045.7 26.1121 2051.01 32.0264 Q2056.36 37.9003 2056.36 48.0275 M2048.9 45.84 Q2048.82 39.7232 2045.46 36.0774 Q2042.14 32.4315 2036.63 32.4315 Q2030.39 32.4315 2026.62 35.9558 Q2022.9 39.4801 2022.33 45.8805 L2048.9 45.84 Z" fill="#000000" fill-rule="nonzero" fill-opacity="1" /><path clip-path="url(#clip610)" d="M2068.59 9.54393 L2076.04 9.54393 L2076.04 72.576 L2068.59 72.576 L2068.59 9.54393 Z" fill="#000000" fill-rule="nonzero" fill-opacity="1" /><polyline clip-path="url(#clip612)" style="stroke:#009af9; stroke-linecap:round; stroke-linejoin:round; stroke-width:8; stroke-opacity:1; fill:none" points="315.32,949.266 335.301,1104.87 355.281,988.112 375.262,917.593 395.243,1129.53 415.224,621.525 435.204,678.215 455.185,969.853 475.166,570.759 495.147,1331.11 515.127,755.741 535.108,947.685 555.089,562.222 575.07,988.283 595.05,812.573 615.031,1031.37 635.012,489.261 654.993,1009.33 674.973,653.226 694.954,708.815 714.935,799.488 734.915,1253.84 754.896,643.939 774.877,1239.63 794.858,490.881 814.838,790.265 834.819,966.994 854.8,1074.54 874.781,612.298 894.761,1139.04 914.742,744.341 934.723,1087.35 954.704,761.381 974.684,956.863 994.665,1059.49 1014.65,574.366 1034.63,709.3 1054.61,745.858 1074.59,565.077 1094.57,1280.17 1114.55,239.853 1134.53,1260.33 1154.51,716.681 1174.49,1303.56 1194.47,407.497 1214.45,1092.01 1234.43,714.927 1254.41,1308.83 1274.4,411.14 1294.38,1053.49 1314.36,688.668 1334.34,962.649 1354.32,857.003 1374.3,1127.87 1394.28,821.255 1414.26,1046.93 1434.24,850.419 1454.22,661.562 1474.2,1251.75 1494.18,1013.97 1514.16,1219.33 1534.15,915.224 1554.13,992.877 1574.11,908.472 1594.09,537.04 1614.07,1152.55 1634.05,944.096 1654.03,451.127 1674.01,1185.75 1693.99,666.55 1713.97,864.101 1733.95,864.341 1753.93,1022.2 1773.91,1193.72 1793.89,834.189 1813.88,1386.4 1833.86,1280.36 1853.84,405.109 1873.82,989.859 1893.8,1022.71 1913.78,670.467 1933.76,840.559 1953.74,909.539 1973.72,653.173 1993.7,1110.18 2013.68,885.828 2033.66,1115.78 2053.64,1309.76 2073.62,915.076 2093.61,931.899 2113.59,707.873 2133.57,957.788 2153.55,524.572 2173.53,1330.66 2193.51,666.044 2213.49,1036.02 2233.47,160.256 2253.45,1078.95 2273.43,753.543 2293.41,798.94 "/>
</svg>
