<?xml version="1.0" encoding="UTF-8" standalone="no"?>
<!DOCTYPE svg PUBLIC "-//W3C//DTD SVG 1.1//EN"
 "http://www.w3.org/Graphics/SVG/1.1/DTD/svg11.dtd">
<!-- Generated by graphviz version 2.50.0 (0)
 -->
<!-- Pages: 1 -->
<svg width="140pt" height="155pt"
 viewBox="0.00 0.00 139.90 155.00" xmlns="http://www.w3.org/2000/svg" xmlns:xlink="http://www.w3.org/1999/xlink">
<g id="graph0" class="graph" transform="scale(1 1) rotate(0) translate(4 151)">
<polygon fill="white" stroke="transparent" points="-4,4 -4,-151 135.9,-151 135.9,4 -4,4"/>
<g id="clust1" class="cluster">
<title>cluster_data</title>
<polygon fill="none" stroke="black" points="31.9,-8 31.9,-83 101.9,-83 101.9,-8 31.9,-8"/>
<text text-anchor="middle" x="82.4" y="-15.8" font-family="Times,serif" font-size="14.00">data</text>
</g>
<!-- alpha -->
<g id="node1" class="node">
<title>alpha</title>
<ellipse fill="white" stroke="black" cx="29.9" cy="-129" rx="29.8" ry="18"/>
<text text-anchor="middle" x="29.9" y="-125.3" font-family="Times,serif" font-size="14.00">alpha</text>
</g>
<!-- y -->
<g id="node3" class="node">
<title>y</title>
<ellipse fill="grey" stroke="black" cx="66.9" cy="-57" rx="27" ry="18"/>
<text text-anchor="middle" x="66.9" y="-53.3" font-family="Times,serif" font-size="14.00">y</text>
</g>
<!-- alpha&#45;&gt;y -->
<g id="edge1" class="edge">
<title>alpha&#45;&gt;y</title>
<path fill="none" stroke="black" d="M38.67,-111.41C43.09,-103.04 48.55,-92.71 53.49,-83.37"/>
<polygon fill="black" stroke="black" points="56.61,-84.95 58.19,-74.47 50.42,-81.68 56.61,-84.95"/>
</g>
<!-- beta -->
<g id="node2" class="node">
<title>beta</title>
<ellipse fill="white" stroke="black" cx="104.9" cy="-129" rx="27" ry="18"/>
<text text-anchor="middle" x="104.9" y="-125.3" font-family="Times,serif" font-size="14.00">beta</text>
</g>
<!-- beta&#45;&gt;y -->
<g id="edge2" class="edge">
<title>beta&#45;&gt;y</title>
<path fill="none" stroke="black" d="M96.08,-111.76C91.48,-103.28 85.74,-92.71 80.58,-83.2"/>
<polygon fill="black" stroke="black" points="83.51,-81.27 75.66,-74.15 77.36,-84.61 83.51,-81.27"/>
</g>
</g>
</svg>
